<svg width="18" height="18" viewBox="0 0 18 18" fill="none" xmlns="http://www.w3.org/2000/svg">
<path fill-rule="evenodd" clip-rule="evenodd" d="M10.2063 2.69646C9.67021 1.76784 8.32986 1.76784 7.79372 2.69646L2.18872 12.4046C1.65258 13.3332 2.32275 14.494 3.39503 14.494H14.605C15.6773 14.494 16.3475 13.3332 15.8113 12.4046L10.2063 2.69646ZM8.99986 4.69472C9.55314 4.69472 10.0017 5.14323 10.0017 5.69651V9.25134C10.0017 9.80461 9.55314 10.2531 8.99986 10.2531C8.44659 10.2531 7.99807 9.80461 7.99807 9.25134V5.69651C7.99807 5.14323 8.44659 4.69472 8.99986 4.69472ZM8.99989 11.2556C9.55316 11.2556 10.0017 11.7042 10.0017 12.2574C10.0017 12.8107 9.55316 13.2592 8.99989 13.2592C8.44661 13.2592 7.99809 12.8107 7.99809 12.2574C7.99809 11.7042 8.44661 11.2556 8.99989 11.2556Z" fill="#AE1C1C"/>
</svg>
