<svg width="14" height="14" viewBox="0 0 14 14" fill="none" xmlns="http://www.w3.org/2000/svg">
<path fill-rule="evenodd" clip-rule="evenodd" d="M7.46172 8.70432C7.18917 8.46575 6.85001 8.29629 6.46726 8.2288C5.35061 8.0319 4.28577 8.77751 4.08888 9.89416C3.89198 11.0108 4.63759 12.0756 5.75424 12.2725C6.87088 12.4694 7.93572 11.7238 8.13262 10.6072C8.20656 10.1879 8.14759 9.77584 7.98597 9.41435L9.31885 8.12891L10.1111 9.76624C9.82543 10.0533 9.62164 10.4276 9.54598 10.8566C9.34909 11.9733 10.0947 13.0381 11.2113 13.235C12.328 13.4319 13.3928 12.6863 13.5897 11.5697C13.7866 10.453 13.041 9.38818 11.9244 9.19128C11.5509 9.12544 11.1833 9.165 10.852 9.28859L9.98163 7.48973L12.977 4.60099L12.3696 3.97116L9.58059 6.66088L7.89862 3.18457L7.11097 3.56567L8.91782 7.30006L7.46172 8.70432ZM4.95058 10.0461C4.8376 10.6868 5.26544 11.2979 5.90618 11.4108C6.54692 11.5238 7.15793 11.096 7.27091 10.4552C7.38389 9.8145 6.95606 9.20349 6.31532 9.09051C5.67457 8.97753 5.06356 9.40536 4.95058 10.0461ZM12.728 11.4177C12.615 12.0585 12.004 12.4863 11.3633 12.3733C10.7225 12.2603 10.2947 11.6493 10.4077 11.0086C10.5207 10.3678 11.1317 9.94001 11.7724 10.053C12.4132 10.166 12.841 10.777 12.728 11.4177ZM1.59652 7.65483C1.53974 7.55476 1.3891 7.57934 1.36706 7.69227L1.26661 8.20715C1.18349 8.63323 0.918371 9.00173 0.540811 9.21598L0.0845672 9.47488C-0.0155082 9.53167 0.00907045 9.68231 0.122007 9.70434L0.636882 9.80479C1.06296 9.88791 1.43147 10.153 1.64571 10.5306L1.90461 10.9868C1.9614 11.0869 2.11204 11.0623 2.13407 10.9494L2.23452 10.4345C2.31765 10.0084 2.58277 9.63994 2.96033 9.42569L3.41657 9.16679C3.51664 9.11 3.49207 8.95936 3.37913 8.93733L2.86425 8.83688C2.43817 8.75376 2.06967 8.48864 1.85542 8.11108L1.59652 7.65483Z" fill="#808080"/>
<path opacity="0.5" fill-rule="evenodd" clip-rule="evenodd" d="M10.9011 3.35262L11.5236 2.73016C11.1872 2.31791 10.7979 1.95659 10.369 1.65369L10.1166 2.01106L9.86421 2.36843C10.253 2.64301 10.6032 2.97372 10.9011 3.35262ZM9.30497 1.05748L9.13194 1.45931L8.9589 1.86114C8.48461 1.65689 7.97772 1.52593 7.45592 1.47774L7.49616 1.04209L7.5364 0.606445C8.15111 0.663224 8.74753 0.817433 9.30497 1.05748ZM6.31682 0.622802L6.36866 1.05722L6.42049 1.49164C6.16655 1.52194 5.9112 1.57239 5.65624 1.64423C5.40127 1.71607 5.15715 1.80635 4.92475 1.91309L4.74216 1.51551L4.55957 1.11793C4.83316 0.992284 5.12003 0.886243 5.41894 0.802022C5.71784 0.717801 6.01787 0.658474 6.31682 0.622802ZM3.51085 1.7407L3.77261 2.09125L4.03437 2.44181C3.61449 2.75534 3.25055 3.13167 2.95266 3.55348L2.59529 3.3011L2.23792 3.04873C2.58803 2.55296 3.01621 2.11006 3.51085 1.7407ZM1.64171 4.11272L2.04354 4.28576L2.44536 4.4588C2.24112 4.93309 2.11016 5.43997 2.06197 5.96177L1.62632 5.92153L1.19067 5.8813C1.24745 5.26658 1.40166 4.67016 1.64171 4.11272Z" fill="#808080"/>
</svg>
