<svg width="14" height="14" viewBox="0 0 14 14" fill="none" xmlns="http://www.w3.org/2000/svg">
<g clip-path="url(#clip0_2675_139325)">
<path fill-rule="evenodd" clip-rule="evenodd" d="M7.46147 8.70481C7.18892 8.46624 6.84977 8.29678 6.46701 8.22929C5.35036 8.03239 4.28553 8.778 4.08863 9.89465C3.89174 11.0113 4.63734 12.0761 5.75399 12.273C6.87064 12.4699 7.93548 11.7243 8.13237 10.6077C8.20631 10.1883 8.14734 9.77633 7.98573 9.41483L9.31861 8.1294L10.1108 9.76673C9.82518 10.0538 9.62139 10.4281 9.54574 10.8571C9.34884 11.9738 10.0945 13.0386 11.2111 13.2355C12.3277 13.4324 13.3926 12.6868 13.5895 11.5702C13.7864 10.4535 13.0408 9.38867 11.9241 9.19177C11.5507 9.12593 11.1831 9.16548 10.8517 9.28908L9.98138 7.49022L12.9768 4.60148L12.3693 3.97165L9.58035 6.66136L7.89837 3.18506L7.11072 3.56615L8.91757 7.30055L7.46147 8.70481ZM4.95034 10.0466C4.83736 10.6873 5.26519 11.2983 5.90593 11.4113C6.54668 11.5243 7.15769 11.0965 7.27067 10.4557C7.38365 9.81499 6.95581 9.20397 6.31507 9.09099C5.67433 8.97801 5.06332 9.40585 4.95034 10.0466ZM12.7278 11.4182C12.6148 12.059 12.0038 12.4868 11.363 12.3738C10.7223 12.2608 10.2945 11.6498 10.4074 11.0091C10.5204 10.3683 11.1314 9.9405 11.7722 10.0535C12.4129 10.1665 12.8408 10.7775 12.7278 11.4182ZM1.59628 7.65532C1.53949 7.55525 1.38885 7.57982 1.36682 7.69276L1.26637 8.20764C1.18325 8.63372 0.918127 9.00222 0.540567 9.21647L0.0843231 9.47537C-0.0157524 9.53216 0.00882631 9.6828 0.121762 9.70483L0.636638 9.80528C1.06272 9.8884 1.43122 10.1535 1.64547 10.5311L1.90437 10.9873C1.96116 11.0874 2.1118 11.0628 2.13383 10.9499L2.23428 10.435C2.3174 10.0089 2.58252 9.64043 2.96008 9.42618L3.41633 9.16728C3.5164 9.11049 3.49182 8.95985 3.37889 8.93782L2.86401 8.83737C2.43793 8.75424 2.06943 8.48913 1.85518 8.11157L1.59628 7.65532Z" fill="url(#paint0_linear_2675_139325)"/>
<path opacity="0.5" fill-rule="evenodd" clip-rule="evenodd" d="M10.9019 3.35262L11.5243 2.73016C11.188 2.31791 10.7986 1.95659 10.3697 1.65369L10.1173 2.01106L9.86495 2.36843C10.2538 2.64301 10.6039 2.97372 10.9019 3.35262ZM9.30571 1.05748L9.13267 1.45931L8.95963 1.86114C8.48534 1.65689 7.97846 1.52593 7.45665 1.47774L7.49689 1.04209L7.53713 0.606445C8.15185 0.663224 8.74827 0.817433 9.30571 1.05748ZM6.31755 0.622802L6.36939 1.05722L6.42123 1.49164C6.16728 1.52194 5.91194 1.57239 5.65697 1.64423C5.40201 1.71607 5.15788 1.80635 4.92548 1.91309L4.74289 1.51551L4.5603 1.11793C4.83389 0.992284 5.12076 0.886243 5.41967 0.802022C5.71857 0.717801 6.0186 0.658474 6.31755 0.622802ZM3.51158 1.7407L3.77335 2.09125L4.03511 2.44181C3.61523 2.75534 3.25128 3.13167 2.95339 3.55348L2.59602 3.3011L2.23865 3.04873C2.58876 2.55296 3.01694 2.11006 3.51158 1.7407ZM1.64245 4.11272L2.04427 4.28576L2.4461 4.4588C2.24185 4.93309 2.11089 5.43997 2.0627 5.96177L1.62705 5.92153L1.19141 5.8813C1.24819 5.26658 1.40239 4.67016 1.64245 4.11272Z" fill="url(#paint1_linear_2675_139325)"/>
</g>
<defs>
<linearGradient id="paint0_linear_2675_139325" x1="-3.00063" y1="10.7466" x2="17.2736" y2="7.70566" gradientUnits="userSpaceOnUse">
<stop stop-color="#07E1F9"/>
<stop offset="1" stop-color="#AE9EFF"/>
</linearGradient>
<linearGradient id="paint1_linear_2675_139325" x1="-1.1048" y1="4.62294" x2="13.953" y2="1.39238" gradientUnits="userSpaceOnUse">
<stop stop-color="#07E1F9"/>
<stop offset="1" stop-color="#AE9EFF"/>
</linearGradient>
<clipPath id="clip0_2675_139325">
<rect width="14" height="14" fill="white"/>
</clipPath>
</defs>
</svg>
