<svg width="16" height="16" viewBox="0 0 16 16" fill="none" xmlns="http://www.w3.org/2000/svg">
<path fill-rule="evenodd" clip-rule="evenodd" d="M7.36777 2.99307C4.89194 3.30355 2.97634 5.4172 2.97634 7.97735C2.97634 10.7518 5.22544 13.001 7.99995 13.001C10.7744 13.001 13.0236 10.7518 13.0236 7.97735C13.0236 7.075 12.7861 6.22981 12.3708 5.49905L13.3941 4.91743C13.9075 5.8208 14.2006 6.86577 14.2006 7.97735C14.2006 11.4019 11.4245 14.178 7.99995 14.178C4.57538 14.178 1.79932 11.4019 1.79932 7.97735C1.79932 4.81637 4.16405 2.20859 7.22132 1.8252L7.36777 2.99307ZM8.64941 2.49995L9.36597 1.92554C10.5724 2.19445 11.6453 2.81427 12.4725 3.67104L11.6258 4.48859C11.1238 3.96866 10.5112 3.55717 9.82644 3.29175V8.62155H9.82587C9.82621 8.63668 9.82638 8.65185 9.82638 8.66706C9.82638 9.7715 8.93106 10.6669 7.82658 10.6669C6.7221 10.6669 5.82678 9.7715 5.82678 8.66706C5.82678 7.56258 6.72214 6.6673 7.82658 6.6673C8.11989 6.6673 8.39845 6.73044 8.64941 6.84388V2.49995ZM7.00381 8.66706C7.00381 8.21267 7.37215 7.84433 7.82658 7.84433C8.28101 7.84433 8.64935 8.21267 8.64935 8.66706C8.64935 9.12149 8.28097 9.48987 7.82658 9.48987C7.37219 9.48987 7.00381 9.12149 7.00381 8.66706Z" fill="#808080"/>
</svg>
