<svg width="16" height="16" viewBox="0 0 16 16" fill="none" xmlns="http://www.w3.org/2000/svg">
<path d="M9.04652 8.24424C10.3478 7.84347 11.2764 6.60292 11.2305 5.16274C11.1757 3.44014 9.74975 2.0889 8.04603 2.14422C6.34196 2.19989 5.00524 3.64103 5.05997 5.36362" stroke="#808080" stroke-width="1.07716"/>
<path d="M7.57568 9.11418C7.23793 10.4583 7.81979 11.9136 9.07782 12.6128C10.5715 13.4433 12.4487 12.8925 13.2699 11.3822C14.0915 9.87226 13.5466 7.97506 12.0526 7.14453" stroke="#808080" stroke-width="1.07716"/>
<path d="M7.06999 7.30156C6.04512 6.49273 4.58431 6.3985 3.44817 7.17319C2.0345 8.13683 1.66167 10.0762 2.61495 11.5049C3.56823 12.9336 5.48676 13.3108 6.90009 12.3472" stroke="#808080" stroke-width="1.07716"/>
</svg>
