<svg width="16" height="16" viewBox="0 0 16 16" fill="none" xmlns="http://www.w3.org/2000/svg">
<path d="M10.9707 11.4092C11.0918 11.5303 11.2871 11.5342 11.4043 11.4092C11.5293 11.2803 11.5254 11.0967 11.4043 10.9756L5.01367 4.58887C4.89258 4.46777 4.69727 4.46777 4.57617 4.58887C4.45898 4.70215 4.45898 4.90527 4.57617 5.02246L10.9707 11.4092ZM11.3145 10.1943C12.3887 9.45215 13.0488 8.47559 13.0488 8.0498C13.0488 7.2998 11.0488 4.84668 7.99805 4.84668C7.36914 4.84668 6.7832 4.95215 6.25195 5.12402L7.33789 6.21387C7.54492 6.13574 7.76758 6.09277 8.00195 6.09277C9.08789 6.09277 9.9707 6.95996 9.9707 8.0498C9.9707 8.28418 9.92773 8.50684 9.8418 8.71387L11.3145 10.1943ZM7.99805 11.2529C8.66211 11.2529 9.27539 11.1357 9.82617 10.9443L8.73242 9.85059C8.50977 9.95215 8.25977 10.0068 8.00195 10.0068C6.91211 10.0068 6.0293 9.1123 6.0293 8.0498C6.0293 7.78418 6.08398 7.53418 6.18555 7.30371L4.75195 5.87012C3.62305 6.62012 2.95117 7.61621 2.95117 8.0498C2.95117 8.7959 4.98633 11.2529 7.99805 11.2529ZM9.18945 7.97559C9.18945 7.33496 8.66992 6.81543 8.02539 6.81543C7.99805 6.81543 7.9707 6.81543 7.94336 6.81934L9.18164 8.05762C9.18555 8.03027 9.18945 8.00293 9.18945 7.97559ZM6.79883 8.02246C6.79883 8.66309 7.32617 9.18262 7.96289 9.18262C7.99414 9.18262 8.02148 9.17871 8.05273 9.17871L6.80273 7.92871C6.80273 7.95996 6.79883 7.99121 6.79883 8.02246Z" fill="#00C1CD"/>
</svg>
