<svg width="16" height="16" viewBox="0 0 16 16" fill="none" xmlns="http://www.w3.org/2000/svg">
<path d="M8 11.2461C11.1016 11.2461 13.1172 8.75781 13.1172 8C13.1172 7.24219 11.0977 4.75391 8 4.75391C4.94922 4.75391 2.88281 7.24219 2.88281 8C2.88281 8.75781 4.94922 11.2461 8 11.2461ZM8 10.3359C5.75391 10.3359 4.03125 8.50391 4.03125 8C4.03125 7.57812 5.75391 5.66406 8 5.66406C10.2461 5.66406 11.9727 7.57812 11.9727 8C11.9727 8.50391 10.2461 10.3359 8 10.3359ZM8.00391 9.86328C9.03906 9.86328 9.86719 9.01172 9.86719 8C9.86719 6.96094 9.03906 6.14062 8.00391 6.14062C6.96484 6.14062 6.13281 6.96094 6.13281 8C6.13672 9.01172 6.96484 9.86328 8.00391 9.86328ZM8 8.57031C7.68359 8.57031 7.42578 8.3125 7.42578 8C7.42578 7.68359 7.68359 7.42578 8 7.42578C8.31641 7.42578 8.57422 7.68359 8.57422 8C8.57422 8.3125 8.31641 8.57031 8 8.57031Z" fill="#FAFAFA"/>
</svg>
