<svg width="16" height="16" viewBox="0 0 16 16" fill="none" xmlns="http://www.w3.org/2000/svg">
<path d="M11.1223 11.5527C11.2434 11.6699 11.4387 11.6738 11.5559 11.5527C11.6731 11.4316 11.677 11.2402 11.5559 11.1191L4.88013 4.44727C4.75903 4.32617 4.56372 4.32617 4.44263 4.44727C4.32544 4.56445 4.32544 4.76367 4.44263 4.88086L11.1223 11.5527ZM9.80981 8.68164V5.06836C9.80981 4.74414 9.56763 4.48633 9.2356 4.48633C9.02466 4.48633 8.8645 4.57227 8.64185 4.7793L7.28638 6.03711C7.27466 6.04883 7.26294 6.05664 7.24341 6.05664H7.18091L9.80981 8.68164ZM6.02466 9.52539H7.052C7.07935 9.52539 7.10278 9.5332 7.12622 9.55273L8.64185 10.9629C8.84888 11.1582 9.02075 11.2441 9.2395 11.2441C9.48169 11.2441 9.6731 11.1191 9.76294 10.8887L5.33325 6.46289C5.18091 6.62305 5.10278 6.86133 5.10278 7.17383V8.56445C5.10278 9.19727 5.41919 9.52539 6.02466 9.52539Z" fill="#00C1CD"/>
</svg>
