<svg width="16" height="16" viewBox="0 0 16 16" fill="none" xmlns="http://www.w3.org/2000/svg">
<path d="M5.86446 9.5874C5.45941 9.5874 5.12118 9.9292 5.25938 10.3099C5.54668 11.1015 6.33433 11.811 7.96777 11.811C9.73486 11.811 10.8735 10.9517 10.8735 9.51221C10.8735 8.20166 9.9873 7.68066 8.90234 7.44434L7.76367 7.18115C7.10303 7.03613 6.75928 6.73535 6.75928 6.29492C6.75928 5.69873 7.25879 5.32812 8.0376 5.32812C8.57361 5.32812 8.94454 5.50911 9.16372 5.77425C9.39686 6.05628 9.68248 6.36475 10.0484 6.36475C10.4429 6.36475 10.7749 6.03171 10.6368 5.66218C10.2966 4.75136 9.3155 4.18945 8.04297 4.18945C6.53369 4.18945 5.30908 4.979 5.30908 6.40771C5.30908 7.6377 6.16309 8.20703 7.16748 8.43262L8.30078 8.6958C9.05811 8.86768 9.42871 9.13086 9.42871 9.64648C9.42871 10.2534 8.93994 10.6616 8.04834 10.6616C7.45428 10.6616 7.03247 10.4689 6.78545 10.1872C6.53792 9.90501 6.23985 9.5874 5.86446 9.5874Z" fill="#00C1CD"/>
</svg>
