<svg width="24" height="24" viewBox="0 0 24 24" fill="none" xmlns="http://www.w3.org/2000/svg">
<path fill-rule="evenodd" clip-rule="evenodd" d="M4.87524 4.125C4.87524 3.91789 5.04314 3.75 5.25024 3.75H6.00024C6.20735 3.75 6.37524 3.91789 6.37524 4.125V5.625H7.87524C8.08235 5.625 8.25024 5.79289 8.25024 6V6.75C8.25024 6.95711 8.08235 7.125 7.87524 7.125H6.37524V8.625C6.37524 8.83211 6.20735 9 6.00024 9H5.25024C5.04314 9 4.87524 8.83211 4.87524 8.625V7.125H3.37524C3.16814 7.125 3.00024 6.95711 3.00024 6.75V6C3.00024 5.79289 3.16814 5.625 3.37524 5.625H4.87524V4.125ZM12.8374 6.21747C12.2415 5.49461 11.1362 5.48871 10.5327 6.20516L5.84179 11.7738C5.36413 12.3408 5.37239 13.1718 5.86123 13.7292L10.7616 19.3171C11.3797 20.0219 12.4856 19.9934 13.0666 19.2577L17.4636 13.6897C17.9013 13.1355 17.8931 12.351 17.4439 11.806L12.8374 6.21747ZM6.989 12.7402L11.6799 7.17155L16.2864 12.7601L11.8894 18.3281L6.989 12.7402Z" fill="#E6E6E6"/>
<path opacity="0.6" fill-rule="evenodd" clip-rule="evenodd" d="M19.2356 12.6525L15.7513 8.36851C15.6206 8.20784 15.6449 7.97165 15.8056 7.84097L16.0965 7.60435C16.2572 7.47367 16.4934 7.49799 16.6241 7.65866L20.1084 11.9427C20.4949 12.4179 20.5013 13.0972 20.1238 13.5796L16.6252 18.0513C16.4975 18.2145 16.2619 18.2432 16.0987 18.1156L15.8034 17.8845C15.6403 17.7569 15.6115 17.5212 15.7391 17.3581L19.2378 12.8864C19.2917 12.8175 19.2908 12.7204 19.2356 12.6525Z" fill="#AFAFB6"/>
<circle cx="20" cy="4" r="4" fill="#00C1CD"/>
</svg>
