<svg width="14" height="14" viewBox="0 0 14 14" fill="none" xmlns="http://www.w3.org/2000/svg">
<rect width="14" height="14" rx="2" fill="white" fill-opacity="0.2"/>
<path d="M6.99918 3.9029C7.52297 3.9029 7.94757 3.47605 7.94757 2.9495C7.94757 2.42295 7.52297 1.99609 6.99918 1.99609C6.47539 1.99609 6.05078 2.42295 6.05078 2.9495C6.05078 3.47605 6.47539 3.9029 6.99918 3.9029Z" stroke="#FAFAFA"/>
<path d="M3.44448 11.0514C3.96825 11.0514 4.39286 10.6245 4.39286 10.098C4.39286 9.57139 3.96825 9.14453 3.44448 9.14453C2.9207 9.14453 2.49609 9.57139 2.49609 10.098C2.49609 10.6245 2.9207 11.0514 3.44448 11.0514Z" stroke="#FAFAFA"/>
<path d="M10.5578 11.0514C11.0815 11.0514 11.5061 10.6245 11.5061 10.098C11.5061 9.57139 11.0815 9.14453 10.5578 9.14453C10.034 9.14453 9.60938 9.57139 9.60938 10.098C9.60938 10.6245 10.034 11.0514 10.5578 11.0514Z" stroke="#FAFAFA"/>
<path d="M9.28906 3.57422C10.6158 4.36224 11.5058 5.81468 11.5058 7.47607C11.5058 7.62042 11.4991 7.76323 11.4859 7.90413" stroke="#FAFAFA" stroke-linecap="square"/>
<path d="M8.7568 11.6484C8.21734 11.8781 7.62415 12.0051 7.00143 12.0051C6.37874 12.0051 5.78555 11.8781 5.24609 11.6484" stroke="#FAFAFA" stroke-linecap="square"/>
<path d="M2.51596 7.90413C2.50281 7.76323 2.49609 7.62042 2.49609 7.47607C2.49609 5.81468 3.38603 4.36224 4.7128 3.57422" stroke="#FAFAFA" stroke-linecap="square"/>
</svg>
