<svg width="24" height="24" viewBox="0 0 24 24" fill="none" xmlns="http://www.w3.org/2000/svg">
<path fill-rule="evenodd" clip-rule="evenodd" d="M5.24961 5.56152H4.59961V6.21152V16.2115V16.8615H5.24961H11.2496V15.5615H5.89961V14.0399L9.53026 10.4082L11.2115 12.0894L12.1308 11.1702L10.0605 9.09997C9.76761 8.80704 9.29267 8.80708 8.99979 9.10005L5.89961 12.2012V6.86152H16.5996V11.2115H17.8996V6.21152V5.56152H17.2496H5.24961ZM13.0938 9.14685H15.3516V7.84685H13.0938V9.14685ZM13.2496 12.1123C12.3383 12.1123 11.5996 12.851 11.5996 13.7623V15.3908H12.8996V13.7623C12.8996 13.569 13.0563 13.4123 13.2496 13.4123H15.9174V13.9321C15.9174 14.0132 16.009 14.0606 16.0752 14.0137L17.7271 12.8439C17.7834 12.8041 17.7834 12.7205 17.7271 12.6807L16.0752 11.5109C16.009 11.464 15.9174 11.5114 15.9174 11.5925V12.1123H13.2496ZM18.0996 14.3908V16.0194C18.0996 16.2127 17.9429 16.3694 17.7496 16.3694H14.8357V15.8494C14.8357 15.7682 14.7442 15.7209 14.6779 15.7678L13.026 16.9375C12.9697 16.9774 12.9697 17.0609 13.026 17.1008L14.6779 18.2705C14.7442 18.3174 14.8357 18.2701 14.8357 18.1889V17.6694H17.7496C18.6609 17.6694 19.3996 16.9307 19.3996 16.0194V14.3908H18.0996Z" fill="#FAFAFA"/>
</svg>
