<svg width="24" height="24" viewBox="0 0 24 24" fill="none" xmlns="http://www.w3.org/2000/svg">
<path d="M18.4449 13.8223C18.521 13.6167 18.8122 13.6167 18.8883 13.8223L19.235 14.7588C19.5219 15.5343 20.1333 16.1466 20.9088 16.4336L21.8453 16.7803C22.0509 16.8563 22.0509 17.1466 21.8453 17.2227L20.9088 17.5693C20.1334 17.8563 19.522 18.4678 19.235 19.2432L18.8883 20.1807C18.8122 20.3861 18.5211 20.3861 18.4449 20.1807L18.0983 19.2432C17.8113 18.4678 17.1999 17.8563 16.4244 17.5693L15.4869 17.2227C15.282 17.1464 15.2821 16.8566 15.4869 16.7803L16.4244 16.4336C17.1999 16.1466 17.8113 15.5343 18.0983 14.7588L18.4449 13.8223ZM16.1285 5.34082C16.9689 5.4262 17.6246 6.1361 17.6246 6.99902V12.4814C17.1141 12.5688 16.6327 12.7439 16.1959 12.9912V6.99902C16.1959 6.86769 16.0899 6.76101 15.9586 6.76074H5.33362C5.20212 6.76074 5.09534 6.86753 5.09534 6.99902V16.999C5.09574 17.1302 5.20237 17.2363 5.33362 17.2363H13.8854C13.9102 17.7383 14.0164 18.2184 14.1871 18.665H5.33362L5.16272 18.6572C4.37847 18.5775 3.75519 17.9532 3.67542 17.1689L3.66663 16.999V6.99902C3.66663 6.13614 4.32238 5.42625 5.16272 5.34082L5.33362 5.33203H15.9586L16.1285 5.34082ZM9.49377 10.4863C9.49407 10.1669 9.83918 9.96684 10.1168 10.125L12.7682 11.6357C13.0485 11.7956 13.0486 12.2005 12.7682 12.3604L10.1168 13.8711C9.83917 14.0291 9.49398 13.8283 9.49377 13.5088V10.4863Z" fill="white" fill-opacity="0.8"/>
<path opacity="0.4" d="M21.7627 13.5176H21.292C21.002 13.2646 20.6809 13.0477 20.334 12.876V10.4873H21.7627V13.5176ZM20.2656 5.34473C21.106 5.4301 21.7627 6.14 21.7627 7.00293V8.51758H20.334V7.00293C20.334 6.8716 20.227 6.76492 20.0957 6.76465H19V6.47852C19 6.05329 18.8659 5.66002 18.6396 5.33594H20.0957L20.2656 5.34473Z" fill="#CCCCCC"/>
</svg>
