<svg width="10" height="11" viewBox="0 0 10 11" fill="none" xmlns="http://www.w3.org/2000/svg">
<path fill-rule="evenodd" clip-rule="evenodd" d="M3.72518 2.18242C4.29881 1.16382 5.7655 1.1638 6.33915 2.18237L9.63122 8.02771C10.1944 9.02762 9.47183 10.2638 8.32424 10.2638H1.74034C0.592774 10.2638 -0.129759 9.02766 0.433348 8.02775L3.72518 2.18242ZM4.35008 6.55856C4.36856 6.96534 4.60266 7.18723 5.00308 7.18723C5.39734 7.18723 5.63144 6.96534 5.64992 6.55239L5.74232 4.01305C5.76696 3.58161 5.45279 3.28577 4.99692 3.28577C4.54105 3.28577 4.23304 3.57545 4.25768 4.00689L4.35008 6.55856ZM4.18991 8.55551C4.18991 8.99312 4.54721 9.2828 5.00308 9.2828C5.45895 9.2828 5.81009 8.99312 5.81009 8.55551C5.81009 8.11791 5.46511 7.82206 5.00308 7.82206C4.54721 7.82206 4.18991 8.11791 4.18991 8.55551Z" fill="#D4A500"/>
</svg>
