<svg width="11" height="11" viewBox="0 0 11 11" fill="none" xmlns="http://www.w3.org/2000/svg">
<path d="M5.24344 10.5C7.97822 10.5 10.2434 8.23478 10.2434 5.5C10.2434 2.76522 7.97306 0.5 5.23828 0.5C2.5035 0.5 0.238281 2.76522 0.238281 5.5C0.238281 8.23478 2.50866 10.5 5.24344 10.5ZM5.24344 9.61249C2.96274 9.61249 1.13611 7.7807 1.13611 5.5C1.13611 3.2193 2.95758 1.38751 5.23828 1.38751C7.51898 1.38751 9.35077 3.2193 9.35593 5.5C9.36109 7.7807 7.52414 9.61249 5.24344 9.61249ZM5.13508 6.49587C5.38792 6.49587 5.54788 6.34623 5.55304 6.15015C5.55304 6.12952 5.55304 6.10888 5.55304 6.08824C5.5582 5.82508 5.72332 5.6548 6.05355 5.43292C6.52827 5.12332 6.85851 4.83437 6.85851 4.26161C6.85851 3.44634 6.13095 3.00258 5.28988 3.00258C4.45397 3.00258 3.89669 3.39474 3.75221 3.84365C3.72641 3.92621 3.71093 4.00877 3.71093 4.09133C3.71093 4.31837 3.88637 4.44221 4.07213 4.44221C4.35077 4.44221 4.40237 4.29773 4.55717 4.11713C4.71713 3.85913 4.939 3.70433 5.25376 3.70433C5.68204 3.70433 5.95552 3.94685 5.95552 4.30289C5.95552 4.62281 5.74912 4.78277 5.326 5.07688C4.98028 5.3194 4.72229 5.5774 4.72229 6.0418V6.09856C4.72229 6.36687 4.87192 6.49587 5.13508 6.49587ZM5.12476 7.96646C5.41888 7.96646 5.66656 7.74458 5.66656 7.45046C5.66656 7.15635 5.42404 6.93447 5.12476 6.93447C4.83064 6.93447 4.58297 7.16151 4.58297 7.45046C4.58297 7.73942 4.8358 7.96646 5.12476 7.96646Z" fill="#999999"/>
</svg>
