<svg width="24" height="24" viewBox="0 0 24 24" fill="none" xmlns="http://www.w3.org/2000/svg">
<path fill-rule="evenodd" clip-rule="evenodd" d="M11.213 4.86566V18.8657H12.713V15.4415L12.0737 10.8232L12.713 10.3974V4.86566H11.213ZM21.3846 14.0821L20.1346 13.436V10.2006L19.9004 9.99066H13.8365V8.74066H20.1395H20.3786L20.5566 8.90024L21.1768 9.45604L21.3846 9.64234V9.92147V13.8099V14.0821ZM3.62129 8.74066H3.86038H10.0982V9.99066H4.09947L3.86523 10.2006V13.5307L4.09947 13.7407H10.0982V14.9907H3.86038H3.62129L3.44324 14.8311L2.8231 14.2753L2.61523 14.089V13.8099V9.92147V9.64234L2.8231 9.45604L3.44324 8.90024L3.62129 8.74066Z" fill="#E0E0E0"/>
<path d="M13.7524 12.1113L19.2945 14.9437L17.6664 16.1098L18.9106 17.8378L17.5421 18.825L16.2979 17.097L14.7758 18.1902L13.7524 12.1113Z" fill="#E0E0E0" stroke="#E0E0E0" stroke-width="0.611295" stroke-miterlimit="10" stroke-linejoin="bevel"/>
</svg>
