<svg width="24" height="24" viewBox="0 0 24 24" fill="none" xmlns="http://www.w3.org/2000/svg">
<path fill-rule="evenodd" clip-rule="evenodd" d="M7.10059 7.235H9.34038V16.7615H7.10059V18.2465H10.8254V5.75H7.10059V7.235ZM16.9 18.25H15.65V17H16.9V18.25ZM16.9 7L15.65 7V5.75H16.9V7ZM13.16 18.25H14.65V17H13.16V18.25ZM14.65 16H13.16V14.75H14.65L14.65 16ZM13.16 13.75L14.65 13.75V12.5L13.16 12.5L13.16 13.75ZM14.65 11.5L13.16 11.5V10.25L14.65 10.25V11.5ZM13.16 9.25H14.65V8H13.16V9.25ZM14.65 7L13.16 7V5.75H14.65V7Z" fill="#FAFAFA"/>
</svg>
