<svg width="24" height="24" viewBox="0 0 24 24" fill="none" xmlns="http://www.w3.org/2000/svg">
<path fill-rule="evenodd" clip-rule="evenodd" d="M7.09998 5.75H8.34998V7H7.09998V5.75ZM7.09998 17H8.34998V18.25H7.09998V17ZM10.84 5.75H9.34998V7H10.84V5.75ZM9.34998 8H10.84V9.25H9.34998V8ZM10.84 10.25H9.34998V11.5H10.84V10.25ZM9.34998 12.5H10.84V13.75H9.34998V12.5ZM10.84 14.75H9.34998V16H10.84V14.75ZM9.34998 17H10.84V18.25H9.34998V17ZM16.8994 7.235H14.6596V16.7615H16.8994V18.2465H13.1746V5.75H16.8994V7.235Z" fill="#FAFAFA"/>
</svg>
