<svg version="1.1" id="图层_1" xmlns="http://www.w3.org/2000/svg" xmlns:xlink="http://www.w3.org/1999/xlink" x="0px" y="0px"
	 viewBox="0 0 120 120" style="enable-background:new 0 0 120 120;" xml:space="preserve">
<style type="text/css">
	.st0{fill:#FFFFFF;}
</style>
<path class="st0" d="M59.3,24.1c7.5,0,13.4,1.8,17.7,5.4s6.4,8.6,6.4,14.9c0,3.2-1.1,6.4-3,9c-2,2.7-4.7,4.9-7.8,6.3
	c3.6,1.1,6.8,3.4,9,6.4c2,3,3.1,6.5,3,10.2c0.1,2.9-0.5,5.8-1.7,8.4c-1.2,2.6-3,5-5.2,6.8c-4.6,3.8-10.7,5.7-18.3,5.7
	c-7.1,0-12.9-1.9-17.4-5.6c-2.2-1.8-4-4.1-5.1-6.6c-1.2-2.6-1.7-5.4-1.6-8.2h14.1c0,1.2,0.2,2.5,0.7,3.6s1.3,2.1,2.3,2.9
	c2.1,1.7,4.7,2.6,7.4,2.5c3.3,0,6-0.9,7.9-2.7c1-0.9,1.7-2,2.2-3.2c0.5-1.2,0.7-2.5,0.7-3.9c0-7.1-3.9-10.6-11.7-10.6h-7.5v-11h7.5
	c3.6,0,6.2-0.9,8-2.7c0.9-1,1.6-2.1,2-3.3c0.4-1.2,0.6-2.5,0.6-3.8c0.1-1.2-0.1-2.5-0.6-3.6c-0.4-1.2-1.1-2.2-2-3.1
	c-1.9-1.7-4.4-2.5-7-2.4c-2.5-0.1-4.9,0.7-6.8,2.2c-0.9,0.7-1.6,1.6-2.1,2.6c-0.5,1-0.7,2.1-0.7,3.2H36c-0.1-3.6,1-7.1,3-10
	c2.1-3,5-5.4,8.4-6.9C51.1,24.9,55.2,24,59.3,24.1L59.3,24.1z"/>
<path d="M59.3,24.1c7.5,0,13.4,1.8,17.7,5.4s6.4,8.6,6.4,14.9c0,3.2-1.1,6.4-3,9c-2,2.7-4.7,4.9-7.8,6.3c3.6,1.1,6.8,3.4,9,6.4
	c2,3,3.1,6.5,3,10.2c0.1,2.9-0.5,5.8-1.7,8.4c-1.2,2.6-3,5-5.2,6.8c-4.6,3.8-10.7,5.7-18.3,5.7c-7.1,0-12.9-1.9-17.4-5.6
	c-2.2-1.8-4-4.1-5.1-6.6c-1.2-2.6-1.7-5.4-1.6-8.2h14.1c0,1.2,0.2,2.5,0.7,3.6s1.3,2.1,2.3,2.9c2.1,1.7,4.7,2.6,7.4,2.5
	c3.3,0,6-0.9,7.9-2.7c1-0.9,1.7-2,2.2-3.2c0.5-1.2,0.7-2.5,0.7-3.9c0-7.1-3.9-10.6-11.7-10.6h-7.5v-11h7.5c3.6,0,6.2-0.9,8-2.7
	c0.9-1,1.6-2.1,2-3.3c0.4-1.2,0.6-2.5,0.6-3.8c0.1-1.2-0.1-2.5-0.6-3.6c-0.4-1.2-1.1-2.2-2-3.1c-1.9-1.7-4.4-2.5-7-2.4
	c-2.5-0.1-4.9,0.7-6.8,2.2c-0.9,0.7-1.6,1.6-2.1,2.6c-0.5,1-0.7,2.1-0.7,3.2H36c-0.1-3.6,1-7.1,3-10c2.1-3,5-5.4,8.4-6.9
	C51.1,24.9,55.2,24,59.3,24.1L59.3,24.1z M59.3,22.1c-4.4,0-8.7,0.9-12.7,2.7c-3.7,1.6-6.9,4.3-9.2,7.6c-2.2,3.3-3.4,7.2-3.3,11.1v2
	h18.1v-2c0-0.8,0.1-1.6,0.5-2.4c0.3-0.7,0.9-1.4,1.5-1.9c1.6-1.2,3.5-1.9,5.5-1.8c2.1-0.1,4.1,0.5,5.7,1.8c0.7,0.7,1.2,1.5,1.5,2.4
	c0.3,0.9,0.5,1.9,0.4,2.8c0.1,1-0.1,2.1-0.4,3.1c-0.3,1-0.9,1.9-1.6,2.7c-1.3,1.4-3.5,2.1-6.5,2.1h-9.6v15h9.5
	c6.7,0,9.7,2.7,9.7,8.6c0.1,1-0.1,2.1-0.5,3c-0.4,1-1,1.8-1.7,2.6c-1.5,1.4-3.7,2.1-6.5,2.1c-2.2,0.1-4.4-0.6-6.1-2.1
	c-0.7-0.6-1.3-1.4-1.7-2.2c-0.4-0.9-0.6-1.8-0.6-2.8v-2H33.1v2c-0.1,3.1,0.5,6.2,1.8,9.1c1.3,2.8,3.2,5.3,5.7,7.3
	c4.8,4,11.1,6.1,18.7,6.1c8,0,14.6-2.1,19.6-6.2c2.5-2,4.4-4.6,5.8-7.5c1.3-2.9,2-6.1,1.9-9.3c0.1-4-1.1-7.9-3.3-11.2
	c-1.6-2.3-3.7-4.2-6.2-5.6c1.9-1.3,3.6-3,5-4.9c2.2-2.9,3.4-6.5,3.4-10.2c0-6.9-2.4-12.4-7.1-16.4S67.2,22.1,59.3,22.1L59.3,22.1z"
	/>
</svg>
