<svg version="1.1" id="图层_1" xmlns="http://www.w3.org/2000/svg" xmlns:xlink="http://www.w3.org/1999/xlink" x="0px" y="0px"
	 viewBox="0 0 120 120" style="enable-background:new 0 0 120 120;" xml:space="preserve">
<style type="text/css">
	.st0{fill:#FFFFFF;}
</style>
<path d="M58.8,22.1C54,22,49.3,23.2,45,25.4c-4,2.1-7.3,5.3-9.5,9.2c-2.2,3.9-3.4,8.4-3.4,12.9v2h18.2v-2c-0.2-2.7,0.7-5.3,2.3-7.4
	c0.7-0.9,1.7-1.5,2.7-2c1-0.4,2.2-0.6,3.3-0.6c1-0.1,2,0.1,2.9,0.4c0.9,0.3,1.8,0.9,2.4,1.6c1.4,1.7,2,3.9,1.9,6.1
	c-0.1,2.2-0.8,4.4-2,6.3c-2,3.1-4.2,6-6.8,8.7l-23,24.5l-0.6,0.6v12.5h52.8V82.8H58.4l13-13.7c4.6-5,7.8-9.4,9.7-13.2
	c1.9-3.6,2.9-7.6,3-11.6c0-7-2.3-12.5-6.8-16.4C72.8,23.9,66.7,22.1,58.8,22.1L58.8,22.1z"/>
<path class="st0" d="M58.8,24.1c7.3,0,13,1.8,17.1,5.3c4,3.5,6.1,8.5,6.1,14.9c-0.1,3.7-1,7.4-2.7,10.7c-2.6,4.6-5.7,8.9-9.4,12.7
	l-16.2,17h30.6v11.4H35.5v-9.7l23-24.5c2.6-2.8,5-5.8,7-9c1.4-2.2,2.2-4.7,2.3-7.3c0.2-2.7-0.7-5.3-2.4-7.4
	c-0.9-0.9-1.9-1.7-3.1-2.1c-1.2-0.5-2.5-0.7-3.7-0.6c-1.4-0.1-2.8,0.2-4.2,0.8c-1.3,0.6-2.5,1.4-3.4,2.5c-1.9,2.5-2.9,5.5-2.8,8.7
	H34.1c0-4.2,1-8.3,3.1-11.9c2.1-3.6,5.1-6.5,8.8-8.5C50,25.1,54.4,24,58.8,24.1z"/>
</svg>
