<svg width="24" height="24" viewBox="0 0 24 24" fill="none" xmlns="http://www.w3.org/2000/svg">
<g clip-path="url(#clip0_6643_184248)">
<path fill-rule="evenodd" clip-rule="evenodd" d="M14.8115 9.37457C14.6626 9.25507 14.4449 9.27862 14.3251 9.42731L11.8769 12.4664L9.53412 9.51129C9.41544 9.36152 9.19756 9.33597 9.04779 9.45465C8.59847 9.8107 8.52279 10.4643 8.87885 10.9136L10.9872 13.5718L9.96869 14.8365C9.65194 14.6676 9.29972 14.5561 8.92572 14.5181L8.63568 14.5035C7.06846 14.5035 5.79785 15.7741 5.79779 17.3414L5.81244 17.6314C5.94805 18.9671 7.00999 20.029 8.34564 20.1646L8.63568 20.1793C10.105 20.1792 11.3136 19.0624 11.4589 17.6314L11.4736 17.3414C11.4736 16.7586 11.2964 16.2178 10.9951 15.7671L11.8681 14.6841L12.8857 15.9683C12.6585 16.3764 12.5263 16.845 12.5263 17.3453L12.541 17.6353C12.6863 19.0663 13.8949 20.1831 15.3642 20.1832L15.6542 20.1685C16.9899 20.033 18.0518 18.971 18.1874 17.6353L18.2021 17.3453C18.2021 15.778 16.9315 14.5074 15.3642 14.5074L15.0742 14.522C14.6247 14.5677 14.2063 14.7182 13.8437 14.9488L12.7587 13.5787L14.9687 10.8345C15.3283 10.3881 15.2579 9.7342 14.8115 9.37457ZM15.3642 15.7574C16.2411 15.7574 16.9521 16.4683 16.9521 17.3453C16.952 18.2222 16.2411 18.9332 15.3642 18.9332C14.4873 18.9331 13.7764 18.2221 13.7763 17.3453C13.7763 16.4683 14.4873 15.7574 15.3642 15.7574ZM8.63568 15.7535C9.51257 15.7535 10.2235 16.4645 10.2236 17.3414C10.2235 18.2183 9.51259 18.9292 8.63568 18.9293C7.7588 18.9292 7.04781 18.2183 7.04779 17.3414C7.04785 16.4645 7.75882 15.7535 8.63568 15.7535Z" fill="white"/>
<path d="M3.87617 10.6968L3.87523 10.6971L4.49383 10.7871C4.38023 11.5661 4.3871 12.3649 4.52201 13.1524L3.90528 13.258L3.29138 13.3628C3.13404 12.4442 3.12564 11.5145 3.25783 10.6077L3.87617 10.6968ZM18.7522 6.24069C19.0423 6.5905 19.3105 6.96665 19.5501 7.36952L19.7716 7.76613C19.9177 8.0429 20.0475 8.32509 20.1615 8.60999L19.5826 8.84192L19.0029 9.07411C18.858 8.71214 18.682 8.35523 18.4756 8.00823C18.2693 7.66138 18.0396 7.33716 17.7908 7.03716L18.7522 6.24069ZM15.027 3.60832C15.8871 3.92518 16.6997 4.37746 17.432 4.95458L17.0477 5.44476L17.0465 5.44407L16.6603 5.93476C16.0328 5.44015 15.3346 5.05255 14.5959 4.78033L15.027 3.60832ZM9.17781 4.84802C8.81582 4.99286 8.45894 5.16892 8.11193 5.37525C7.76509 5.58154 7.44059 5.81037 7.1406 6.05914L6.34388 5.09681C6.69363 4.80681 7.07043 4.54037 7.47322 4.30083C7.87597 4.06135 8.29074 3.85753 8.71249 3.68872L9.17781 4.84802ZM10.4861 3.18819C11.4051 3.0307 12.3354 3.02312 13.2425 3.15533L13.1541 3.77248L13.1519 3.77204L13.0631 4.39133C12.284 4.27772 11.4854 4.28458 10.6978 4.41951L10.5912 3.80304L10.4861 3.18819Z" fill="#7A7A7A"/>
<path d="M4.95355 5.38486C5.00611 5.24281 5.20704 5.24281 5.2596 5.38486L5.49925 6.03249C5.69756 6.56843 6.12012 6.99099 6.65606 7.18931L7.30369 7.42895C7.44575 7.48152 7.44575 7.68244 7.30369 7.735L6.65606 7.97465C6.12012 8.17297 5.69756 8.59552 5.49925 9.13146L5.2596 9.77909C5.20704 9.92115 5.00611 9.92115 4.95355 9.77909L4.7139 9.13146C4.51559 8.59552 4.09303 8.17297 3.55709 7.97465L2.90946 7.735C2.7674 7.68244 2.7674 7.48152 2.90946 7.42895L3.55709 7.18931C4.09303 6.99099 4.51559 6.56843 4.7139 6.03249L4.95355 5.38486Z" fill="white"/>
<path d="M19.6907 10.3798C19.7294 10.2751 19.8776 10.2751 19.9163 10.3798L20.093 10.8573C20.2392 11.2525 20.5508 11.5641 20.946 11.7103L21.4235 11.887C21.5282 11.9258 21.5282 12.0739 21.4235 12.1127L20.946 12.2894C20.5508 12.4356 20.2392 12.7472 20.093 13.1423L19.9163 13.6198C19.8776 13.7246 19.7294 13.7246 19.6907 13.6198L19.514 13.1423C19.3677 12.7472 19.0562 12.4356 18.661 12.2894L18.1835 12.1127C18.0787 12.0739 18.0787 11.9258 18.1835 11.887L18.661 11.7103C19.0562 11.5641 19.3677 11.2525 19.514 10.8573L19.6907 10.3798Z" fill="white"/>
</g>
<defs>
<clipPath id="clip0_6643_184248">
<rect width="20" height="20" fill="white" transform="translate(2 2)"/>
</clipPath>
</defs>
</svg>
