<svg width="8px" height="12px" viewBox="0 0 8 12" version="1.1" xmlns="http://www.w3.org/2000/svg" xmlns:xlink="http://www.w3.org/1999/xlink">
    <title>矩形</title>
    <g id="时间轴" stroke="none" stroke-width="1" fill="none" fill-rule="evenodd">
        <g id="时间轴/轨道快捷编辑13个" transform="translate(-1316.000000, -10.000000)">
            <g id="时间轴/组件/缩放时间轴" transform="translate(1240.000000, 0.000000)">
                <g id="编组-3" transform="translate(32.000000, 10.000000)">
                    <path d="M1,5 L95,5 C95.5522847,5 96,5.44771525 96,6 C96,6.55228475 95.5522847,7 95,7 L1,7 C0.44771525,7 6.76353751e-17,6.55228475 0,6 C-6.76353751e-17,5.44771525 0.44771525,5 1,5 Z" id="矩形" fill="#3B3B3C"></path>
                    <path d="M1,5 L48,5 L48,5 L48,7 L1,7 C0.44771525,7 6.76353751e-17,6.55228475 0,6 C-6.76353751e-17,5.44771525 0.44771525,5 1,5 Z" id="矩形" fill="#AEAEB2"></path>
                    <path d="M50,1 C50.2761424,1 50.5261424,1.11192881 50.7071068,1.29289322 C50.8880712,1.47385763 51,1.72385763 51,2 L51,2 L51,8 C51,8.82842712 50.6642136,9.57842712 50.1213203,10.1213203 C49.5784271,10.6642136 48.8284271,11 48,11 C47.1715729,11 46.4215729,10.6642136 45.8786797,10.1213203 C45.3357864,9.57842712 45,8.82842712 45,8 L45,8 L45,2 C45,1.72385763 45.1119288,1.47385763 45.2928932,1.29289322 C45.4738576,1.11192881 45.7238576,1 46,1 L46,1 Z" id="矩形" stroke="#FFFFFF" stroke-width="2" fill="#FFFFFF"></path>
                </g>
            </g>
        </g>
    </g>
</svg>
