<svg width="24" height="24" viewBox="0 0 24 24" fill="none" xmlns="http://www.w3.org/2000/svg">
<path fill-rule="evenodd" clip-rule="evenodd" d="M4 6H4.75H18.2071H18.9571V6.75V11.9833H17.4571V7.5H5.5V16.2519H12.3642V17.7519H4.75H4V17.0019V6.75V6ZM17.9687 13.0435L16.7957 14.5098L15.6228 13.0437L14.6857 13.7933L16.0273 15.4703L15.3705 16.2912C15.244 16.2554 15.1105 16.2363 14.9725 16.2363C14.1669 16.2363 13.5139 16.8893 13.5139 17.6948C13.5139 18.5004 14.1669 19.1534 14.9725 19.1534C15.778 19.1534 16.431 18.5004 16.431 17.6948C16.431 17.4692 16.3798 17.2556 16.2884 17.0649L16.7957 16.4308L17.3016 17.0633C17.2098 17.2542 17.1584 17.4683 17.1584 17.6944C17.1584 18.4999 17.8114 19.153 18.617 19.153C19.4225 19.153 20.0755 18.4999 20.0755 17.6944C20.0755 16.8888 19.4225 16.2358 18.617 16.2358C18.4794 16.2358 18.3463 16.2549 18.2201 16.2904L17.564 15.4703L18.9058 13.7932L17.9687 13.0435ZM15.231 17.6948C15.231 17.8376 15.1153 17.9534 14.9725 17.9534C14.8297 17.9534 14.7139 17.8376 14.7139 17.6948C14.7139 17.552 14.8297 17.4363 14.9725 17.4363C15.1153 17.4363 15.231 17.552 15.231 17.6948ZM18.617 17.953C18.7598 17.953 18.8755 17.8372 18.8755 17.6944C18.8755 17.5516 18.7598 17.4358 18.617 17.4358C18.4741 17.4358 18.3584 17.5516 18.3584 17.6944C18.3584 17.8372 18.4741 17.953 18.617 17.953ZM8.23693 12.7334C7.96079 12.7325 7.73686 12.9556 7.73677 13.2317L7.73673 13.3532C7.73664 13.6293 7.96042 13.8539 8.23656 13.8548L12.6464 13.8691C12.9225 13.8699 13.1465 13.6468 13.1466 13.3707L13.1466 13.2492C13.1467 12.9731 12.9229 12.7485 12.6468 12.7476L8.23693 12.7334ZM7.73693 10.7444C7.73693 11.0205 7.96079 11.2441 8.23693 11.2437L15.0535 11.2337C15.3296 11.2333 15.5535 11.0091 15.5535 10.733V10.6116C15.5535 10.3354 15.3296 10.1119 15.0535 10.1123L8.23693 10.1222C7.96079 10.1226 7.73693 10.3468 7.73693 10.623V10.7444Z" fill="#FAFAFA"/>
</svg>
