<svg width="24" height="24" viewBox="0 0 24 24" fill="none" xmlns="http://www.w3.org/2000/svg">
<path fill-rule="evenodd" clip-rule="evenodd" d="M11.2508 4.85C11.2508 4.6567 11.4075 4.5 11.6008 4.5H12.4008C12.5941 4.5 12.7508 4.6567 12.7508 4.85V19.15C12.7508 19.3433 12.5941 19.5 12.4008 19.5H11.6008C11.4075 19.5 11.2508 19.3433 11.2508 19.15V4.85ZM9.75042 6.7501H5.9C5.1268 6.7501 4.5 7.37691 4.5 8.1501V15.8501C4.5 16.6233 5.1268 17.2501 5.9 17.2501H9.75042V15.8501H5.9L5.9 8.1501H9.75042V6.7501ZM19.5 13.4678V8.1501C19.5 7.37691 18.8732 6.7501 18.1 6.7501H14.2504V8.1501H18.1V13.0397C18.5969 13.1059 19.0681 13.2531 19.5 13.4678Z" fill="#FAFBFF"/>
<path d="M17.3007 14.6387C17.3692 14.4538 17.6308 14.4538 17.6993 14.6387L18.0114 15.4821C18.2696 16.1801 18.8199 16.7304 19.5179 16.9886L20.3613 17.3007C20.5462 17.3692 20.5462 17.6308 20.3613 17.6993L19.5179 18.0114C18.8199 18.2696 18.2696 18.8199 18.0114 19.5179L17.6993 20.3613C17.6308 20.5462 17.3692 20.5462 17.3007 20.3613L16.9886 19.5179C16.7304 18.8199 16.1801 18.2696 15.4821 18.0114L14.6387 17.6993C14.4538 17.6308 14.4538 17.3692 14.6387 17.3007L15.4821 16.9886C16.1801 16.7304 16.7304 16.1801 16.9886 15.4821L17.3007 14.6387Z" fill="#FAFBFF"/>
</svg>
