<svg width="21" height="20" viewBox="0 0 21 20" fill="none" xmlns="http://www.w3.org/2000/svg">
<path d="M10.8311 3.59277C14.2213 3.76474 16.917 6.56797 16.917 10.001L16.9092 10.3311C16.7372 13.7212 13.9338 16.4168 10.501 16.417L10.1709 16.4092C6.88975 16.2431 4.2592 13.6121 4.09277 10.3311L4.08398 10.001C4.08398 6.45715 6.95715 3.58398 10.501 3.58398L10.8311 3.59277ZM10.501 4.83398C7.64751 4.83398 5.33398 7.14751 5.33398 10.001C5.33416 12.8543 7.64761 15.167 10.501 15.167C13.3542 15.1668 15.6668 12.8542 15.667 10.001C15.667 7.14761 13.3543 4.83416 10.501 4.83398ZM12.8838 9.40918L10.9424 11.3516C10.6983 11.5956 10.3017 11.5956 10.0576 11.3516L8.11621 9.40918L9 8.52539L10.5 10.0254L12 8.52539L12.8838 9.40918Z" fill="#E0E0E0"/>
</svg>
