<svg width="20" height="20" viewBox="0 0 20 20" fill="none" xmlns="http://www.w3.org/2000/svg">
<rect width="20" height="20" rx="4" fill="black" fill-opacity="0.2"/>
<path d="M10.3311 3.59277C13.7213 3.76474 16.417 6.56797 16.417 10.001L16.4092 10.3311C16.2372 13.7212 13.4338 16.4168 10.001 16.417L9.6709 16.4092C6.38975 16.2431 3.7592 13.6121 3.59277 10.3311L3.58398 10.001C3.58398 6.45715 6.45715 3.58398 10.001 3.58398L10.3311 3.59277ZM10.001 4.83398C7.14751 4.83398 4.83398 7.14751 4.83398 10.001C4.83416 12.8543 7.14761 15.167 10.001 15.167C12.8542 15.1668 15.1668 12.8542 15.167 10.001C15.167 7.14761 12.8543 4.83416 10.001 4.83398ZM12.3838 9.40918L10.4424 11.3516C10.1983 11.5956 9.80169 11.5956 9.55762 11.3516L7.61621 9.40918L8.5 8.52539L10 10.0254L11.5 8.52539L12.3838 9.40918Z" fill="#E0E0E0"/>
</svg>
