<svg width="24" height="24" viewBox="0 0 24 24" fill="none" xmlns="http://www.w3.org/2000/svg">
<path fill-rule="evenodd" clip-rule="evenodd" d="M12.0003 8.16659C11.356 8.16659 10.8337 7.64425 10.8337 6.99992C10.8337 6.35559 11.356 5.83325 12.0003 5.83325C12.6447 5.83325 13.167 6.35559 13.167 6.99992C13.167 7.64425 12.6447 8.16659 12.0003 8.16659ZM12.0003 12.9999C11.356 12.9999 10.8337 12.4776 10.8337 11.8333C10.8337 11.1889 11.356 10.6666 12.0003 10.6666C12.6447 10.6666 13.167 11.1889 13.167 11.8333C13.167 12.4776 12.6447 12.9999 12.0003 12.9999ZM10.8337 16.6666C10.8337 17.3109 11.356 17.8333 12.0003 17.8333C12.6447 17.8333 13.167 17.3109 13.167 16.6666C13.167 16.0223 12.6447 15.4999 12.0003 15.4999C11.356 15.4999 10.8337 16.0223 10.8337 16.6666Z" fill="white" fill-opacity="0.8"/>
</svg>
