<svg width="24" height="24" viewBox="0 0 24 24" fill="none" xmlns="http://www.w3.org/2000/svg">
<path d="M4.61353 8.60889H3.14771V15.2847H4.61353V16.7847H1.64771V7.10791H4.61353V8.60889ZM22.0002 16.7847H19.387V15.2847H20.5002V8.60889H19.387V7.10791H22.0002V16.7847Z" fill="#7A7A7A"/>
<path d="M18.4502 15.333L18.4883 15.8535L17.1094 16.8398L18.1748 18.3203L18.1055 18.7471L16.7373 19.7344L16.3105 19.6641L15.2441 18.1846L13.9707 19.0996L13.4902 18.9023L12.4678 12.8232L12.9082 12.5L18.4502 15.333ZM18.1719 13.9619L16.6719 13.1953V7.5H7.3291V16.5H11.9102L12.1621 18H5.82812V6H18.1719V13.9619Z" fill="#E0E0E0"/>
</svg>
