<svg width="24" height="24" viewBox="0 0 24 24" fill="none" xmlns="http://www.w3.org/2000/svg">
<path fill-rule="evenodd" clip-rule="evenodd" d="M4 4C2.89543 4 2 4.89543 2 6V18C2 19.1046 2.89543 20 4 20H20C21.1046 20 22 19.1046 22 18V6C22 4.89543 21.1046 4 20 4H4ZM5.5 17C5.5 17.2761 5.27614 17.5 5 17.5H4.5C4.22386 17.5 4 17.2761 4 17V12C4 11.7239 4.22386 11.5 4.5 11.5H5C5.27614 11.5 5.5 11.7239 5.5 12L5.5 17ZM7.4 17.5C7.12386 17.5 6.9 17.2761 6.9 17V13C6.9 12.7239 7.12386 12.5 7.4 12.5H7.9C8.17614 12.5 8.4 12.7239 8.4 13V17C8.4 17.2761 8.17614 17.5 7.9 17.5H7.4ZM11.3 17C11.3 17.2761 11.0761 17.5 10.8 17.5H10.3C10.0239 17.5 9.8 17.2761 9.8 17V16C9.8 15.7239 10.0239 15.5 10.3 15.5H10.8C11.0761 15.5 11.3 15.7239 11.3 16V17ZM13.2 17.5C12.9239 17.5 12.7 17.2761 12.7 17V15C12.7 14.7239 12.9239 14.5 13.2 14.5H13.7C13.9761 14.5 14.2 14.7239 14.2 15V17C14.2 17.2761 13.9761 17.5 13.7 17.5H13.2ZM17.1 17C17.1 17.2761 16.8761 17.5 16.6 17.5H16.1C15.8239 17.5 15.6 17.2761 15.6 17V13C15.6 12.7239 15.8239 12.5 16.1 12.5H16.6C16.8761 12.5 17.1 12.7239 17.1 13V17ZM19.5 17.5C19.7761 17.5 20 17.2761 20 17V15C20 14.7239 19.7761 14.5 19.5 14.5H19C18.7239 14.5 18.5 14.7239 18.5 15V17C18.5 17.2761 18.7239 17.5 19 17.5H19.5ZM4.5 6C4.22386 6 4 6.22386 4 6.5V9.5C4 9.77614 4.22386 10 4.5 10H19.5C19.7761 10 20 9.77614 20 9.5V6.5C20 6.22386 19.7761 6 19.5 6H4.5Z" fill="white" fill-opacity="0.8"/>
</svg>
