<svg width="24" height="24" viewBox="0 0 24 24" fill="none" xmlns="http://www.w3.org/2000/svg">
<path fill-rule="evenodd" clip-rule="evenodd" d="M2 6C2 4.89543 2.89543 4 4 4H20C21.1046 4 22 4.89543 22 6V18C22 19.1046 21.1046 20 20 20H4C2.89543 20 2 19.1046 2 18V6ZM5 18C5.27614 18 5.5 17.7761 5.5 17.5L5.5 7.5C5.5 7.22386 5.27614 7 5 7H4.5C4.22386 7 4 7.22386 4 7.5V17.5C4 17.7761 4.22386 18 4.5 18H5ZM6.9 17.5C6.9 17.7761 7.12386 18 7.4 18H7.9C8.17614 18 8.4 17.7761 8.4 17.5V10.5C8.4 10.2239 8.17614 10 7.9 10H7.4C7.12386 10 6.9 10.2239 6.9 10.5V17.5ZM10.8 18C11.0761 18 11.3 17.7761 11.3 17.5V14.5C11.3 14.2239 11.0761 14 10.8 14H10.3C10.0239 14 9.8 14.2239 9.8 14.5V17.5C9.8 17.7761 10.0239 18 10.3 18H10.8ZM12.7 17.5C12.7 17.7761 12.9239 18 13.2 18H13.7C13.9761 18 14.2 17.7761 14.2 17.5V13.5C14.2 13.2239 13.9761 13 13.7 13H13.2C12.9239 13 12.7 13.2239 12.7 13.5V17.5ZM16.6 18C16.8761 18 17.1 17.7761 17.1 17.5V9.5C17.1 9.22386 16.8761 9 16.6 9H16.1C15.8239 9 15.6 9.22386 15.6 9.5V17.5C15.6 17.7761 15.8239 18 16.1 18H16.6ZM20 17.5C20 17.7761 19.7761 18 19.5 18H19C18.7239 18 18.5 17.7761 18.5 17.5V13.5C18.5 13.2239 18.7239 13 19 13H19.5C19.7761 13 20 13.2239 20 13.5V17.5Z" fill="white" fill-opacity="0.8"/>
</svg>
