<svg width="24" height="24" viewBox="0 0 24 24" fill="none" xmlns="http://www.w3.org/2000/svg">
<path fill-rule="evenodd" clip-rule="evenodd" d="M4 4C2.89543 4 2 4.89543 2 6V18C2 19.1046 2.89543 20 4 20H20C21.1046 20 22 19.1046 22 18V6C22 4.89543 21.1046 4 20 4H4ZM5.5 17.5C5.5 17.7761 5.27614 18 5 18H4.5C4.22386 18 4 17.7761 4 17.5V15.5C4 15.2239 4.22386 15 4.5 15H5C5.27614 15 5.5 15.2239 5.5 15.5L5.5 17.5ZM7.4 18C7.12386 18 6.9 17.7761 6.9 17.5V15.5C6.9 15.2239 7.12386 15 7.4 15H7.9C8.17614 15 8.4 15.2239 8.4 15.5V17.5C8.4 17.7761 8.17614 18 7.9 18H7.4ZM11.3 17.5C11.3 17.7761 11.0761 18 10.8 18H10.3C10.0239 18 9.8 17.7761 9.8 17.5V16.5C9.8 16.2239 10.0239 16 10.3 16H10.8C11.0761 16 11.3 16.2239 11.3 16.5V17.5ZM13.2 18C12.9239 18 12.7 17.7761 12.7 17.5V16.5C12.7 16.2239 12.9239 16 13.2 16H13.7C13.9761 16 14.2 16.2239 14.2 16.5V17.5C14.2 17.7761 13.9761 18 13.7 18H13.2ZM15.6 17.5C15.6 17.7761 15.8239 18 16.1 18H16.6C16.8761 18 17.1 17.7761 17.1 17.5V14.5C17.1 14.2239 16.8761 14 16.6 14H16.1C15.8239 14 15.6 14.2239 15.6 14.5V17.5ZM19.5 18C19.7761 18 20 17.7761 20 17.5V16.5C20 16.2239 19.7761 16 19.5 16H19C18.7239 16 18.5 16.2239 18.5 16.5V17.5C18.5 17.7761 18.7239 18 19 18H19.5ZM4.5 6C4.22386 6 4 6.22386 4 6.5V12.5C4 12.7761 4.22386 13 4.5 13H19.5C19.7761 13 20 12.7761 20 12.5V6.5C20 6.22386 19.7761 6 19.5 6H4.5Z" fill="#00C1CD" fill-opacity="0.8"/>
</svg>
