<svg width="16" height="16" viewBox="0 0 16 16" fill="none" xmlns="http://www.w3.org/2000/svg">
<path d="M10.3311 4.14707H14.9654" stroke="#808080" stroke-width="1.06477"/>
<path d="M10.3311 12.4889H14.9654" stroke="#808080" stroke-width="1.06477"/>
<path d="M12.6482 4.1471V12.4878" stroke="#808080" stroke-width="1.06477"/>
<path d="M7.46496 12.9239V12.6392C6.82368 12.593 6.40813 12.4968 6.21831 12.3506C6.02849 12.2044 5.93358 11.826 5.93358 11.2155V4.30938H6.81085C7.72403 4.30938 8.32299 4.43635 8.60771 4.6903C8.89244 4.94424 9.12715 5.4919 9.31184 6.33326H9.68891L9.60426 3.65527H0.700743L0.608398 6.33326H0.993166C1.1522 5.48677 1.38948 4.93783 1.70499 4.68645C2.0205 4.43507 2.61432 4.30938 3.48646 4.30938H4.36373V11.0308C4.36373 11.7132 4.28165 12.139 4.11748 12.3083C3.95331 12.4776 3.53776 12.5879 2.87083 12.6392V12.9239H7.46496Z" fill="#808080"/>
</svg>
