<svg width="16" height="16" viewBox="0 0 16 16" fill="none" xmlns="http://www.w3.org/2000/svg">
<path fill-rule="evenodd" clip-rule="evenodd" d="M4.64824 10.9746H1.37378V12.1702H4.7622C4.64118 11.9557 4.57213 11.708 4.57213 11.4442C4.57213 11.2801 4.59887 11.1222 4.64824 10.9746ZM7.34047 12.1702H14.6262V10.9746H7.45443C7.5038 11.1222 7.53054 11.2801 7.53054 11.4442C7.53054 11.708 7.46149 11.9557 7.34047 12.1702Z" fill="#808080"/>
<path fill-rule="evenodd" clip-rule="evenodd" d="M11.3517 5.02539L14.6262 5.02539L14.6262 3.82984L11.2379 3.82984C11.3589 4.04425 11.4279 4.29187 11.4279 4.55561C11.4279 4.71983 11.4011 4.8778 11.3517 5.02539ZM8.65948 3.82984L1.37378 3.82984L1.37378 5.02539L8.54565 5.02539C8.49625 4.8778 8.46949 4.71983 8.46949 4.55561C8.46949 4.29187 8.53851 4.04426 8.65948 3.82984Z" fill="#808080"/>
<path fill-rule="evenodd" clip-rule="evenodd" d="M3.63257 11.5719C3.63257 10.2362 4.7154 9.15332 6.05114 9.15332C7.38688 9.15332 8.46971 10.2362 8.46971 11.5719C8.46971 12.9076 7.38688 13.9905 6.05114 13.9905C4.7154 13.9905 3.63257 12.9076 3.63257 11.5719ZM7.28 11.5721C7.28 10.8932 6.72968 10.3429 6.05083 10.3429C5.37197 10.3429 4.82165 10.8932 4.82165 11.5721C4.82165 12.2509 5.37197 12.8012 6.05083 12.8012C6.72968 12.8012 7.28 12.2509 7.28 11.5721Z" fill="#808080"/>
<path fill-rule="evenodd" clip-rule="evenodd" d="M12.3676 4.42811C12.3676 5.76385 11.2847 6.84668 9.94898 6.84668C8.61325 6.84668 7.53041 5.76385 7.53041 4.42811C7.53041 3.09237 8.61325 2.00954 9.94898 2.00954C11.2847 2.00954 12.3676 3.09237 12.3676 4.42811ZM8.71992 4.42875C8.71992 5.10761 9.27024 5.65793 9.9491 5.65793C10.628 5.65793 11.1783 5.10761 11.1783 4.42875C11.1783 3.7499 10.628 3.19958 9.9491 3.19958C9.27024 3.19958 8.71992 3.7499 8.71992 4.42875Z" fill="#808080"/>
</svg>
