<svg width="16" height="16" viewBox="0 0 16 16" fill="none" xmlns="http://www.w3.org/2000/svg">
<path d="M3.94165 9.89014H5.10181C5.12817 9.89014 5.15454 9.89893 5.18091 9.9209L6.92993 11.4854C7.17163 11.7007 7.3562 11.8018 7.60669 11.8018C7.97144 11.8018 8.24829 11.5249 8.24829 11.1602V4.854C8.24829 4.48926 7.97144 4.19922 7.60229 4.19922C7.3606 4.19922 7.18481 4.30029 6.92993 4.52881L5.18091 6.08008C5.15454 6.10645 5.12817 6.11523 5.10181 6.11523H3.94165C3.2605 6.11523 2.90454 6.48877 2.90454 7.20068V8.80908C2.90454 9.521 3.2605 9.89014 3.94165 9.89014ZM11.531 11.1162C11.7727 11.2568 12.0627 11.1997 12.2209 10.9624C12.7791 10.1406 13.0955 9.09033 13.0955 7.99609C13.0955 6.90186 12.7791 5.84277 12.2209 5.02979C12.0627 4.79248 11.7727 4.73535 11.531 4.87598C11.2673 5.02979 11.2366 5.35059 11.4167 5.64062C11.843 6.29541 12.0891 7.12598 12.0891 7.99609C12.0891 8.86182 11.8386 9.69238 11.4167 10.3516C11.2366 10.6372 11.2673 10.958 11.531 11.1162ZM4.07788 8.9585C3.96362 8.9585 3.90649 8.89697 3.90649 8.78711V7.22266C3.90649 7.1084 3.96362 7.04688 4.07788 7.04688H5.32593C5.44897 7.04688 5.53247 7.0249 5.62915 6.93701L7.12329 5.57031C7.14087 5.55273 7.16284 5.54395 7.18921 5.54395C7.21997 5.54395 7.24634 5.56592 7.24634 5.60547V10.3955C7.24634 10.4351 7.21997 10.4614 7.18921 10.4614C7.16724 10.4614 7.14526 10.4526 7.12329 10.4307L5.62915 9.07275C5.53687 8.98486 5.44897 8.9585 5.32593 8.9585H4.07788ZM9.67651 9.96045C9.90942 10.1055 10.1951 10.0483 10.3489 9.8374C10.7048 9.34521 10.9158 8.69043 10.9158 7.99609C10.9158 7.30176 10.7048 6.64697 10.3489 6.15039C10.1951 5.93945 9.90942 5.88672 9.67651 6.03174C9.42603 6.18994 9.3689 6.49316 9.57544 6.82715C9.79077 7.14795 9.90942 7.56104 9.90942 7.99609C9.90942 8.43115 9.78638 8.84424 9.57544 9.16504C9.37329 9.49902 9.42603 9.80225 9.67651 9.96045Z" fill="#FAFAFA"/>
</svg>
