<svg width="14" height="14" viewBox="0 0 14 14" fill="none" xmlns="http://www.w3.org/2000/svg">
<path d="M0 2C0 0.89543 0.895431 0 2 0H12C13.1046 0 14 0.895431 14 2V12C14 13.1046 13.1046 14 12 14H2C0.89543 14 0 13.1046 0 12V2Z" fill="white" fill-opacity="0.2"/>
<path fill-rule="evenodd" clip-rule="evenodd" d="M7.15972 3.55005H1.5V4.85005H7.15972C7.05772 4.65581 7 4.43467 7 4.20005C7 3.96543 7.05772 3.74429 7.15972 3.55005ZM9.64028 4.85005H12.0809V3.55005H9.64028C9.74229 3.74429 9.8 3.96543 9.8 4.20005C9.8 4.43467 9.74229 4.65581 9.64028 4.85005Z" fill="#FAFAFA"/>
<path fill-rule="evenodd" clip-rule="evenodd" d="M3.65971 9.15002H1.5V10.45H3.65973C3.55772 10.2558 3.5 10.0346 3.5 9.8C3.5 9.56539 3.55771 9.34426 3.65971 9.15002ZM6.14027 10.45H12.0809V9.15002H6.14029C6.24229 9.34426 6.3 9.56539 6.3 9.8C6.3 10.0346 6.24228 10.2558 6.14027 10.45Z" fill="#FAFAFA"/>
<path d="M4.9 8.40002C5.6732 8.40002 6.3 9.02683 6.3 9.80002C6.3 10.5732 5.6732 11.2 4.9 11.2C4.1268 11.2 3.5 10.5732 3.5 9.80002C3.5 9.02683 4.1268 8.40002 4.9 8.40002Z" stroke="#FAFAFA" stroke-width="1.25"/>
<path d="M8.40005 2.80005C9.17325 2.80005 9.80005 3.42685 9.80005 4.20005C9.80005 4.97325 9.17325 5.60005 8.40005 5.60005C7.62685 5.60005 7.00005 4.97325 7.00005 4.20005C7.00005 3.42685 7.62685 2.80005 8.40005 2.80005Z" stroke="#FAFAFA" stroke-width="1.25"/>
</svg>
