<svg width="14" height="14" viewBox="0 0 14 14" fill="none" xmlns="http://www.w3.org/2000/svg">
<path fill-rule="evenodd" clip-rule="evenodd" d="M7.00096 3.87299L6.57926 5.01262C6.31086 5.73798 5.73896 6.30988 5.0136 6.57828L3.87397 6.99999L5.0136 7.42169C5.73896 7.6901 6.31086 8.262 6.57926 8.98735L7.00096 10.127L7.42267 8.98735C7.69107 8.26199 8.26297 7.6901 8.98833 7.42169L10.128 6.99999L8.98833 6.57828C8.26297 6.30988 7.69107 5.73798 7.42267 5.01262L7.00096 3.87299ZM5.36005 4.56148L6.39136 1.77441H7.61057L8.64187 4.56148C8.77861 4.931 9.06995 5.22234 9.43947 5.35908L12.2265 6.39038V7.60959L9.43948 8.6409C9.06995 8.77763 8.77861 9.06898 8.64187 9.4385L7.61057 12.2256H6.39136L5.36005 9.4385C5.22332 9.06898 4.93197 8.77763 4.56245 8.6409L1.77539 7.60959V6.39038L4.56245 5.35908C4.93197 5.22234 5.22332 4.931 5.36005 4.56148Z" fill="#FAFAFA"/>
</svg>
