<svg width="11" height="10" viewBox="0 0 11 10" fill="none" xmlns="http://www.w3.org/2000/svg">
<path fill-rule="evenodd" clip-rule="evenodd" d="M5.89141 1.01562C5.50651 0.348958 4.54425 0.348959 4.15935 1.01563L0.135466 7.9852C-0.249434 8.65187 0.231693 9.4852 1.00149 9.4852H9.04927C9.81907 9.4852 10.3002 8.65187 9.91529 7.9852L5.89141 1.01562ZM5.02526 2.45019C5.42246 2.45019 5.74446 2.77219 5.74446 3.16939V5.72144C5.74446 6.11864 5.42246 6.44064 5.02526 6.44064C4.62806 6.44064 4.30607 6.11864 4.30607 5.72144V3.16939C4.30607 2.77219 4.62806 2.45019 5.02526 2.45019ZM5.02526 7.16035C5.42246 7.16035 5.74446 7.48234 5.74446 7.87954C5.74446 8.27675 5.42246 8.59874 5.02526 8.59874C4.62806 8.59874 4.30606 8.27675 4.30606 7.87954C4.30606 7.48234 4.62806 7.16035 5.02526 7.16035Z" fill="#FAFAFA"/>
</svg>
