<svg width="14" height="14" viewBox="0 0 14 14" fill="none" xmlns="http://www.w3.org/2000/svg">
<rect width="14" height="14" rx="2" fill="white" fill-opacity="0.2"/>
<path fill-rule="evenodd" clip-rule="evenodd" d="M2.91667 2.91667H11.0833V11.0833H2.91667V2.91667ZM1.75 2.91667C1.75 2.27234 2.27233 1.75 2.91667 1.75H11.0833C11.7277 1.75 12.25 2.27233 12.25 2.91667V11.0833C12.25 11.7277 11.7277 12.25 11.0833 12.25H2.91667C2.27234 12.25 1.75 11.7277 1.75 11.0833V2.91667ZM6.70833 5.25H7.58333H9.33333H10.2083V4.95833V4.375V4.08333H9.33333H7.58333H6.70833V4.375V4.95833V5.25ZM3.79167 9.91667H4.66667H6.41667H7.29167V9.625V9.04167V8.75H6.41667H4.66667H3.79167V9.04167V9.625V9.91667ZM6.125 7.52494H5.25V7.23328V6.64994V6.35828H6.125H7.875H8.75V6.64994V7.23328V7.52494H7.875H6.125Z" fill="white"/>
</svg>
