<svg version="1.1" id="图层_1" xmlns="http://www.w3.org/2000/svg" xmlns:xlink="http://www.w3.org/1999/xlink" x="0px" y="0px"
	 viewBox="0 0 14 14" style="enable-background:new 0 0 14 14;" xml:space="preserve">
<style type="text/css">
	.st0{fill:#FAFAFA;}
</style>
<g>
	<polygon class="st0" points="10.6,5.7 9.6,5.6 9.7,4.7 9.9,4.4 10.6,3.9 9.9,3.6 9.6,3.3 9.3,2.5 8.8,3.1 8.4,3.2 7.6,3.2 8,4 
		8.1,4.4 7.7,5.6 6.7,5.3 7.1,4.3 6.3,3 6.8,2.2 8.2,2.2 9.2,1.2 10,1.3 10.5,2.7 11.8,3.3 11.9,4.2 10.7,5.1 	"/>
</g>
<g>
	<path class="st0" d="M11.9,11.6H2.4l-0.5-0.5v-7l0.5-0.5h3.1l0.4,0.2L7,5.3h4.8l0.5,0.5v5.3L11.9,11.6z M2.9,10.6h8.5V6.3H6.8
		L6.4,6.1L5.2,4.6H2.9V10.6z"/>
</g>
</svg>
