<svg width="14" height="14" viewBox="0 0 14 14" fill="none" xmlns="http://www.w3.org/2000/svg">
<path fill-rule="evenodd" clip-rule="evenodd" d="M7.86601 3.01562C7.48111 2.34896 6.51886 2.34896 6.13396 3.01563L2.11008 9.9852C1.72518 10.6519 2.2063 11.4852 2.9761 11.4852H11.0239C11.7937 11.4852 12.2748 10.6519 11.8899 9.9852L7.86601 3.01562ZM6.99987 4.45019C7.39707 4.45019 7.71907 4.77219 7.71907 5.16939V7.72144C7.71907 8.11864 7.39707 8.44064 6.99987 8.44064C6.60267 8.44064 6.28067 8.11864 6.28067 7.72144V5.16939C6.28067 4.77219 6.60267 4.45019 6.99987 4.45019ZM6.99987 9.16035C7.39707 9.16035 7.71907 9.48234 7.71907 9.87954C7.71907 10.2767 7.39707 10.5987 6.99987 10.5987C6.60267 10.5987 6.28067 10.2767 6.28067 9.87954C6.28067 9.48234 6.60267 9.16035 6.99987 9.16035Z" fill="#FAFAFA"/>
</svg>
