<svg width="40" height="40" viewBox="0 0 40 40" fill="none" xmlns="http://www.w3.org/2000/svg">
<g filter="url(#filter0_d_6263_17867)">
<path fill-rule="evenodd" clip-rule="evenodd" d="M11 6V17L13.909 14.1822L14.0658 14.0455H19L11 6Z" fill="black"/>
<path fill-rule="evenodd" clip-rule="evenodd" d="M9.79999 3.09131L21.8855 15.2455H14.536L9.79999 19.8331V3.09131ZM14.0658 14.0455H19L11 6.00002V17L13.909 14.1822L14.0658 14.0455Z" fill="white"/>
<path fill-rule="evenodd" clip-rule="evenodd" d="M17 25L22.98 31L22.98 27L25 27L27 27L27 31L33 25L27 19L27 23L25 23L22.98 23L22.98 19L17 25ZM18.414 25L21.981 21.414L21.981 24L24.501 24L28 24L28 21.414L31.586 25L28 28.586L28 26L24.501 26L21.981 26L21.981 28.586L18.414 25Z" fill="white"/>
<path fill-rule="evenodd" clip-rule="evenodd" d="M24.5 24L21.98 24L21.98 21.414L18.414 25L21.98 28.586L21.98 26L24.5 26L28 26L28 28.586L31.586 25L28 21.414L28 24L24.5 24Z" fill="black"/>
</g>
<defs>
<filter id="filter0_d_6263_17867" x="-1.7" y="-0.5" width="43" height="43" filterUnits="userSpaceOnUse" color-interpolation-filters="sRGB">
<feFlood flood-opacity="0" result="BackgroundImageFix"/>
<feColorMatrix in="SourceAlpha" type="matrix" values="0 0 0 0 0 0 0 0 0 0 0 0 0 0 0 0 0 0 127 0" result="hardAlpha"/>
<feOffset dx="-0.2" dy="1"/>
<feGaussianBlur stdDeviation="0.75"/>
<feColorMatrix type="matrix" values="0 0 0 0 0 0 0 0 0 0 0 0 0 0 0 0 0 0 0.47 0"/>
<feBlend mode="normal" in2="BackgroundImageFix" result="effect1_dropShadow_6263_17867"/>
<feBlend mode="normal" in="SourceGraphic" in2="effect1_dropShadow_6263_17867" result="shape"/>
</filter>
</defs>
</svg>
