<svg width="14" height="14" viewBox="0 0 14 14" fill="none" xmlns="http://www.w3.org/2000/svg">
<g clip-path="url(#clip0_3453_150447)">
<rect y="14" width="14" height="14" rx="2" transform="rotate(-90 0 14)" fill="white" fill-opacity="0.2"/>
<path fill-rule="evenodd" clip-rule="evenodd" d="M9.78083 8.48702C9.67451 8.53466 9.56701 8.57622 9.45871 8.61186V7.30729C10.4004 6.78092 10.8002 5.61273 10.3507 4.60948C9.87519 3.54827 8.62945 3.07346 7.56824 3.54895C7.0349 3.78792 6.64967 4.22145 6.45876 4.72832L5.20783 4.72832C5.43292 3.7546 6.09521 2.89402 7.07756 2.45385C8.74357 1.70737 10.6993 2.45279 11.4458 4.1188C12.1923 5.78481 11.4468 7.74053 9.78083 8.48702ZM5.56982 7.12948V7.06165L5.53163 7.06165C5.54413 7.08446 5.55686 7.10707 5.56982 7.12948ZM3.88905 6.64463H7.19461C7.39098 6.64463 7.55016 6.80381 7.55016 7.00018V10.3057C7.55016 10.5021 7.39098 10.6613 7.19461 10.6613H3.88905C3.69268 10.6613 3.5335 10.5021 3.5335 10.3057V7.00018C3.5335 6.80382 3.69268 6.64463 3.88905 6.64463ZM2.3335 7.00018C2.3335 6.14107 3.02994 5.44463 3.88905 5.44463H7.19461C8.05372 5.44463 8.75016 6.14107 8.75016 7.00018V10.3057C8.75016 11.1648 8.05372 11.8613 7.19461 11.8613H3.88905C3.02994 11.8613 2.3335 11.1648 2.3335 10.3057V7.00018Z" fill="white"/>
</g>
<defs>
<clipPath id="clip0_3453_150447">
<rect y="14" width="14" height="14" rx="2" transform="rotate(-90 0 14)" fill="white"/>
</clipPath>
</defs>
</svg>
