<svg width="14" height="14" viewBox="0 0 14 14" fill="none" xmlns="http://www.w3.org/2000/svg">
<path d="M3.50328 9.64195C2.79876 9.64195 2.24835 9.47071 1.85205 9.12823C1.45576 8.78087 1.24538 8.28917 1.22092 7.65314C1.21603 7.51126 1.21358 7.2862 1.21358 6.97797C1.21358 6.66975 1.21603 6.44469 1.22092 6.30281C1.24538 5.68146 1.45821 5.20199 1.85939 4.86441C2.26547 4.52682 2.81343 4.35803 3.50328 4.35803C3.96807 4.35803 4.3717 4.43387 4.71418 4.58553C5.06154 4.7372 5.32574 4.93046 5.50676 5.1653C5.69268 5.40014 5.79053 5.64232 5.80031 5.89184C5.80031 5.93587 5.78319 5.97256 5.74894 6.00192C5.71959 6.03127 5.68289 6.04595 5.63886 6.04595H4.5674C4.51847 6.04595 4.47933 6.03861 4.44998 6.02393C4.42062 6.00926 4.39616 5.98235 4.37659 5.94321C4.31299 5.80132 4.21269 5.67901 4.0757 5.57627C3.93871 5.46863 3.7479 5.41482 3.50328 5.41482C2.92107 5.41482 2.61529 5.72304 2.58593 6.3395C2.58104 6.47649 2.57859 6.68932 2.57859 6.97797C2.57859 7.26174 2.58104 7.47456 2.58593 7.61645C2.61529 8.26226 2.92841 8.58517 3.52529 8.58517C3.81395 8.58517 4.0439 8.51178 4.21514 8.365C4.39127 8.21333 4.47933 7.98339 4.47933 7.67516V7.53572H3.78949C3.73567 7.53572 3.69164 7.5186 3.65739 7.48435C3.62314 7.44521 3.60602 7.39873 3.60602 7.34491V6.80184C3.60602 6.74803 3.62314 6.70399 3.65739 6.66975C3.69164 6.63061 3.73567 6.61104 3.78949 6.61104H5.63886C5.69268 6.61104 5.73671 6.63061 5.77096 6.66975C5.80521 6.70399 5.82233 6.74803 5.82233 6.80184V7.63846C5.82233 8.05433 5.72693 8.41393 5.53612 8.71726C5.34531 9.01571 5.07378 9.24565 4.72151 9.40711C4.37415 9.56367 3.96807 9.64195 3.50328 9.64195Z" fill="white"/>
<path d="M6.84775 9.56856C6.79883 9.56856 6.75479 9.55144 6.71565 9.51719C6.68141 9.47805 6.66428 9.43402 6.66428 9.38509V4.61489C6.66428 4.56107 6.68141 4.51704 6.71565 4.48279C6.75479 4.44854 6.79883 4.43142 6.84775 4.43142H7.83115C7.88496 4.43142 7.929 4.44854 7.96324 4.48279C8.00238 4.51704 8.02195 4.56107 8.02195 4.61489V9.38509C8.02195 9.43891 8.00238 9.48294 7.96324 9.51719C7.929 9.55144 7.88496 9.56856 7.83115 9.56856H6.84775Z" fill="white"/>
<path d="M9.22712 9.56856C9.17819 9.56856 9.13416 9.55144 9.09502 9.51719C9.06077 9.47805 9.04365 9.43402 9.04365 9.38509V4.61489C9.04365 4.56107 9.06077 4.51704 9.09502 4.48279C9.13416 4.44854 9.17819 4.43142 9.22712 4.43142H12.603C12.6568 4.43142 12.7008 4.44854 12.7351 4.48279C12.7693 4.51704 12.7864 4.56107 12.7864 4.61489V5.35611C12.7864 5.40503 12.7693 5.44906 12.7351 5.4882C12.7008 5.52245 12.6568 5.53957 12.603 5.53957H10.3353V6.61837H12.4562C12.51 6.61837 12.554 6.63794 12.5883 6.67708C12.6225 6.71133 12.6396 6.75536 12.6396 6.80918V7.54306C12.6396 7.59198 12.6225 7.63602 12.5883 7.67516C12.554 7.7094 12.51 7.72653 12.4562 7.72653H10.3353V9.38509C10.3353 9.43891 10.3181 9.48294 10.2839 9.51719C10.2497 9.55144 10.2056 9.56856 10.1518 9.56856H9.22712Z" fill="white"/>
</svg>
