<svg version="1.1" id="图层_1" xmlns="http://www.w3.org/2000/svg" xmlns:xlink="http://www.w3.org/1999/xlink" x="0px" y="0px"
	 viewBox="0 0 14 14" style="enable-background:new 0 0 14 14;" xml:space="preserve">
<style type="text/css">
	.st0{fill:#FFFFFF;}
</style>
<g>
	<g>
		<g>
			<g>
				<g>
					<g>
						<g>
							<g>
								<path class="st0" d="M9.3,12.1c-0.5,0-1-0.1-1.5-0.4C6.6,11,6,9.6,6.3,8.2l0.9,0.2c-0.2,1,0.2,2,1.1,2.5
									c0.5,0.3,1.1,0.3,1.7,0.2c0.6-0.2,1-0.5,1.3-1.1c0.6-1.1,0.2-2.4-0.9-3l0.4-0.8c1.5,0.8,2,2.7,1.2,4.2
									c-0.4,0.7-1.1,1.3-1.9,1.5C9.9,12,9.6,12.1,9.3,12.1z M4.7,12c-0.2,0-0.4,0-0.6-0.1c-0.8-0.2-1.5-0.6-2-1.3
									C1.2,9.2,1.6,7.2,3,6.3c1.1-0.8,2.6-0.7,3.6,0.1L6,7.1C5.3,6.5,4.3,6.5,3.5,7c-1,0.7-1.3,2.1-0.6,3.1
									c0.3,0.5,0.8,0.8,1.4,0.9c0.6,0.1,1.2,0,1.6-0.3l0.5,0.7C5.9,11.8,5.3,12,4.7,12z M8.1,8L7.9,7.1C8.8,6.9,9.5,6,9.4,5
									c0-0.6-0.3-1.1-0.7-1.5C8.3,3,7.7,2.8,7.2,2.8C6.6,2.8,6,3.1,5.6,3.5C5.2,3.9,5,4.5,5,5.1l-0.9,0c0-0.8,0.3-1.6,0.8-2.2
									c0.6-0.6,1.3-1,2.2-1c0.8,0,1.6,0.3,2.2,0.8s0.9,1.3,1,2.2C10.4,6.3,9.5,7.6,8.1,8z"/>
							</g>
						</g>
					</g>
				</g>
			</g>
		</g>
	</g>
</g>
</svg>
