<svg width="14" height="14" viewBox="0 0 14 14" fill="none" xmlns="http://www.w3.org/2000/svg">
<path fill-rule="evenodd" clip-rule="evenodd" d="M5.99994 1.81055L5.49994 2.31055V5.31055L5.99994 5.81055H7.99994L8.49994 5.31055V2.31055L7.99994 1.81055H5.99994ZM6.49994 4.81055V2.81055H7.49994V4.81055H6.49994ZM7.95558 7.36497C7.99104 7.47932 8.00492 7.59716 7.99868 7.7131C7.99612 7.76237 7.98989 7.81169 7.97989 7.86065C7.95712 7.97266 7.91563 8.07788 7.85882 8.17288C7.81793 8.24153 7.76852 8.30574 7.71107 8.36376C7.64997 8.42562 7.58178 8.47841 7.50859 8.52155C7.41294 8.57817 7.30705 8.61931 7.19435 8.64151C7.14942 8.65042 7.1042 8.65615 7.059 8.65879C6.94132 8.66587 6.82156 8.65222 6.7054 8.61632C6.618 8.58942 6.5357 8.55086 6.46033 8.50246C6.43758 8.48791 6.41536 8.4724 6.39374 8.45594C6.23909 8.33841 6.12667 8.18195 6.0624 8.00859C6.02729 7.91443 6.00728 7.81726 6.00154 7.7202C5.994 7.59632 6.00944 7.47014 6.04962 7.34826C6.06989 7.28652 6.096 7.22742 6.12732 7.17164C6.17263 7.09054 6.22957 7.01519 6.29738 6.94836C6.36086 6.88567 6.43171 6.8326 6.50768 6.78975C6.56276 6.75854 6.62111 6.7324 6.68207 6.71198C6.80786 6.66967 6.93835 6.65379 7.06627 6.66241C7.11922 6.66589 7.17218 6.67363 7.22465 6.68575C7.30685 6.70462 7.38519 6.73363 7.45827 6.77138C7.62315 6.8562 7.76639 6.9878 7.86599 7.16031C7.90414 7.2264 7.9339 7.29503 7.95558 7.36497ZM12.566 9.71933L12.383 9.03632L9.78489 7.53632L9.10188 7.71933L8.10188 9.45138L8.28489 10.1344L10.883 11.6344L11.566 11.4514L12.566 9.71933ZM9.7179 8.65234L11.45 9.65234L10.95 10.5184L9.2179 9.51837L9.7179 8.65234ZM3.11685 11.6343L2.43384 11.4513L1.43384 9.71921L1.61685 9.0362L4.21493 7.5362L4.89794 7.71921L5.89794 9.45126L5.71493 10.1343L3.11685 11.6343ZM3.04986 10.5183L4.78191 9.51825L4.28191 8.65223L2.54986 9.65223L3.04986 10.5183Z" fill="#FAFAFA"/>
</svg>
