<svg width="16" height="17" viewBox="0 0 16 17" fill="none" xmlns="http://www.w3.org/2000/svg">
<g clip-path="url(#clip0_1_21902)">
<path d="M0 2.25C0 1.14543 0.895431 0.25 2 0.25H14C15.1046 0.25 16 1.14543 16 2.25V14.25C16 15.3546 15.1046 16.25 14 16.25H2C0.89543 16.25 0 15.3546 0 14.25V2.25Z" fill="#3B3B3B"/>
<path d="M-1 4.83887L-0.348563 5.67416C1.96152 8.63621 6.34385 8.90615 9 6.25V6.25L17 14.25" stroke="#00C1CD" stroke-width="1.2"/>
<circle cx="9" cy="6.25" r="2" fill="#00C1CD" stroke="#262626"/>
</g>
<defs>
<clipPath id="clip0_1_21902">
<path d="M0 2.25C0 1.14543 0.895431 0.25 2 0.25H14C15.1046 0.25 16 1.14543 16 2.25V14.25C16 15.3546 15.1046 16.25 14 16.25H2C0.89543 16.25 0 15.3546 0 14.25V2.25Z" fill="white"/>
</clipPath>
</defs>
</svg>
