<svg width="16" height="16" viewBox="0 0 16 16" fill="none" xmlns="http://www.w3.org/2000/svg">
<g clip-path="url(#clip0_24172_30127)">
<path fill-rule="evenodd" clip-rule="evenodd" d="M16.1085 13.6189C12.8955 7.72838 6.18392 4.66094 -0.37277 6.08631L-0.627686 4.9137C6.44951 3.37517 13.6939 6.68612 17.162 13.0443L17.5266 13.7127L16.4731 14.2873L16.1085 13.6189Z" fill="#525252"/>
<path d="M11 6C11 7.10457 10.1046 8 9 8C7.89543 8 7 7.10457 7 6C7 4.89543 7.89543 4 9 4C10.1046 4 11 4.89543 11 6Z" fill="#525252"/>
<path fill-rule="evenodd" clip-rule="evenodd" d="M9 4.5C8.17157 4.5 7.5 5.17157 7.5 6C7.5 6.82843 8.17157 7.5 9 7.5C9.82843 7.5 10.5 6.82843 10.5 6C10.5 5.17157 9.82843 4.5 9 4.5ZM6.5 6C6.5 4.61929 7.61929 3.5 9 3.5C10.3807 3.5 11.5 4.61929 11.5 6C11.5 7.38071 10.3807 8.5 9 8.5C7.61929 8.5 6.5 7.38071 6.5 6Z" fill="#262626"/>
</g>
<defs>
<clipPath id="clip0_24172_30127">
<path d="M0 2C0 0.89543 0.895431 0 2 0H14C15.1046 0 16 0.895431 16 2V14C16 15.1046 15.1046 16 14 16H2C0.89543 16 0 15.1046 0 14V2Z" fill="white"/>
</clipPath>
</defs>
</svg>
