<svg width="3" height="72" viewBox="0 0 3 72" fill="none" xmlns="http://www.w3.org/2000/svg">
<path d="M3 0C1.34315 0 0 1.34315 0 3V69C0 70.6569 1.34315 72 3 72V0Z" fill="white"/>
<rect width="1" height="1" rx="0.5" transform="matrix(-1 0 0 1 2 31.5)" fill="#B2B2B2"/>
<rect width="1" height="1" rx="0.5" transform="matrix(-1 0 0 1 2 33.5)" fill="#B2B2B2"/>
<rect width="1" height="1" rx="0.5" transform="matrix(-1 0 0 1 2 35.5)" fill="#B2B2B2"/>
<rect width="1" height="1" rx="0.5" transform="matrix(-1 0 0 1 2 37.5)" fill="#B2B2B2"/>
<rect width="1" height="1" rx="0.5" transform="matrix(-1 0 0 1 2 39.5)" fill="#B2B2B2"/>
</svg>
