<svg width="3" height="46" viewBox="0 0 3 46" fill="none" xmlns="http://www.w3.org/2000/svg">
<path d="M3 0C1.34315 0 0 1.34315 0 3V43C0 44.6569 1.34315 46 3 46V0Z" fill="white"/>
<rect width="1" height="1" rx="0.5" transform="matrix(-1 0 0 1 2 18.5)" fill="#B2B2B2"/>
<rect width="1" height="1" rx="0.5" transform="matrix(-1 0 0 1 2 20.5)" fill="#B2B2B2"/>
<rect width="1" height="1" rx="0.5" transform="matrix(-1 0 0 1 2 22.5)" fill="#B2B2B2"/>
<rect width="1" height="1" rx="0.5" transform="matrix(-1 0 0 1 2 24.5)" fill="#B2B2B2"/>
<rect width="1" height="1" rx="0.5" transform="matrix(-1 0 0 1 2 26.5)" fill="#B2B2B2"/>
</svg>
