<svg width="14" height="14" viewBox="0 0 14 14" fill="none" xmlns="http://www.w3.org/2000/svg">
<path fill-rule="evenodd" clip-rule="evenodd" d="M8.04857 2.69421L7.4945 3.44896L8.20727 6.10909C8.05639 6.07679 7.89982 6.05979 7.73929 6.05979C6.51047 6.05979 5.51429 7.05589 5.51429 8.28476C5.51429 9.51358 6.51043 10.5098 7.73929 10.5098C8.96815 10.5098 9.9643 9.51358 9.9643 8.28476C9.9643 8.00971 9.91439 7.74633 9.82315 7.50316L8.86401 3.92363C9.24457 3.97038 9.61533 4.06366 9.9687 4.19915L10.3983 3.07869C9.66195 2.79635 8.86392 2.65956 8.04857 2.69421ZM8.68263 7.88316L8.75676 8.15979C8.76173 8.20075 8.7643 8.24245 8.7643 8.28476C8.7643 8.85088 8.30537 9.3098 7.73929 9.3098C7.17321 9.3098 6.71429 8.85088 6.71429 8.28476C6.71429 7.71868 7.17317 7.25979 7.73929 7.25979C8.16287 7.25979 8.52642 7.51669 8.68263 7.88316ZM4.58673 8.77683H1.93238V9.97683L5.0342 9.97683C4.80954 9.61841 4.65413 9.21216 4.58673 8.77683ZM2.76518 6.4L5.16498 6.4C4.90682 6.75201 4.71912 7.15894 4.62266 7.6H2.76518V6.4Z" fill="#FAFAFA"/>
</svg>
