<svg width="17" height="16" viewBox="0 0 17 16" fill="none" xmlns="http://www.w3.org/2000/svg">
<g clip-path="url(#clip0)">
<path d="M3 3.5C3 3.22386 3.22386 3 3.5 3H7.5C7.77614 3 8 3.22386 8 3.5V5.5C8 5.77614 7.77614 6 7.5 6H3.5C3.22386 6 3 5.77614 3 5.5V3.5Z" stroke="#FAFAFA"/>
<path d="M9 10.5C9 10.2239 9.22386 10 9.5 10H13.5C13.7761 10 14 10.2239 14 10.5V12.5C14 12.7761 13.7761 13 13.5 13H9.5C9.22386 13 9 12.7761 9 12.5V10.5Z" stroke="#FAFAFA"/>
<path fill-rule="evenodd" clip-rule="evenodd" d="M9.99994 3C9.99994 2.72386 10.2238 2.5 10.4999 2.5C12.9013 2.5 14.8634 4.381 14.9931 6.75H15.8256C15.9916 6.75 16.0854 6.94049 15.9841 7.072L14.6584 8.79413C14.5784 8.89813 14.4215 8.89813 14.3415 8.79413L13.0158 7.072C12.9145 6.94049 13.0083 6.75 13.1742 6.75H13.9911C13.863 4.93368 12.3489 3.5 10.4999 3.5C10.2238 3.5 9.99994 3.27614 9.99994 3ZM1.17425 10.25H2.00873C2.13692 12.0663 3.651 13.5 5.49994 13.5H6.49994C6.77608 13.5 6.99994 13.2761 6.99994 13C6.99994 12.7239 6.77608 12.5 6.49994 12.5H5.49994C4.2036 12.5 3.13771 11.5133 3.01228 10.25H3.82563C3.9916 10.25 4.08536 10.0595 3.98412 9.928L2.65842 8.20587C2.57836 8.10187 2.42152 8.10187 2.34146 8.20587L1.01576 9.928C0.914525 10.0595 1.00828 10.25 1.17425 10.25Z" fill="#FAFAFA"/>
</g>
<defs>
<clipPath id="clip0">
<rect width="16" height="16" fill="white" transform="translate(0.5)"/>
</clipPath>
</defs>
</svg>
