<svg version="1.1" id="图层_1" xmlns="http://www.w3.org/2000/svg" xmlns:xlink="http://www.w3.org/1999/xlink" x="0px" y="0px"
	 viewBox="0 0 18 18" style="enable-background:new 0 0 18 18;" xml:space="preserve">
<style type="text/css">
	.st0{fill:#FAFAFA;}
</style>
<g>
	<g>
		<g>
			<g>
				<g>
					<path class="st0" d="M8.7,14.6c-3.1,0-5.6-2.5-5.6-5.6c0-3.1,2.5-5.6,5.6-5.6c2.6,0,4.7,1.7,5.4,4.1l0.5-0.6l1,0.9l-1.5,1.7
						L12.9,9c0-2.3-1.9-4.2-4.3-4.2C6.3,4.8,4.4,6.7,4.4,9c0,2.3,1.9,4.2,4.2,4.2c1.1,0,2.2-0.4,3-1.2l1,1
						C11.6,14,10.2,14.6,8.7,14.6z"/>
				</g>
			</g>
		</g>
	</g>
</g>
</svg>
