<svg width="14" height="14" viewBox="0 0 14 14" fill="none" xmlns="http://www.w3.org/2000/svg">
<path fill-rule="evenodd" clip-rule="evenodd" d="M5.63828 3.49723C5.63828 2.43464 6.49967 1.57324 7.56226 1.57324H10.5477C11.6103 1.57324 12.4717 2.43464 12.4717 3.49723V6.48269C12.4717 7.38915 11.8448 8.1492 11.001 8.35298L10.3147 7.33559H10.5477C11.0188 7.33559 11.4006 6.95373 11.4006 6.48269V3.49723C11.4006 3.02618 11.0188 2.64433 10.5477 2.64433H7.56226C7.09122 2.64433 6.70936 3.02619 6.70936 3.49723V5.87682L5.64357 7.45692C5.64007 7.42191 5.63828 7.3864 5.63828 7.35047V3.49723ZM5.21587 3.5031V4.58998C5.07062 4.55927 4.92001 4.54312 4.76562 4.54312C3.56925 4.54312 2.59941 5.51297 2.59941 6.70933C2.59941 7.89553 3.55283 8.85904 4.73515 8.87534L4.06762 9.865L4.08116 9.87414C2.62198 9.56005 1.52832 8.26241 1.52832 6.70933C1.52832 4.92142 2.97771 3.47204 4.76562 3.47204C4.91841 3.47204 5.06872 3.48262 5.21587 3.5031ZM7.83021 6.91441C7.92737 6.76868 8.14152 6.76868 8.23868 6.91441L10.9447 10.9734C11.0534 11.1366 10.9365 11.3551 10.7405 11.3551H5.32842C5.13238 11.3551 5.01544 11.1366 5.12419 10.9734L7.83021 6.91441ZM9.12987 6.32028C8.60876 5.53861 7.46013 5.53861 6.93901 6.32028L4.23299 10.3793C3.64972 11.2542 4.27691 12.4261 5.32842 12.4261H10.7405C11.792 12.4261 12.4192 11.2542 11.8359 10.3793L9.12987 6.32028Z" fill="#FAFAFA"/>
</svg>
