<svg width="14" height="14" viewBox="0 0 14 14" fill="none" xmlns="http://www.w3.org/2000/svg">
<rect width="14" height="14" fill="black" fill-opacity="0.01"/>
<path fill-rule="evenodd" clip-rule="evenodd" d="M2.38588 6.99967C2.38588 4.45136 4.4517 2.38555 7.00001 2.38555C9.54832 2.38555 11.6141 4.45136 11.6141 6.99967C11.6141 9.54799 9.54832 11.6138 7.00001 11.6138C6.95181 11.6138 6.9038 11.6131 6.85599 11.6116C7.12215 10.4424 6.7619 9.15474 5.82227 8.25429C4.87596 7.34745 3.56321 7.04472 2.40058 7.371C2.39085 7.2486 2.38588 7.12476 2.38588 6.99967ZM2.84146 8.49741C3.22346 8.90581 3.61202 9.29249 4.02379 9.70228L4.18318 9.86096L4.31777 9.99519C4.79822 10.4746 5.20173 10.8773 5.69969 11.2776C5.84369 10.5373 5.61116 9.71404 4.992 9.12069C4.38284 8.53694 3.56649 8.33633 2.84146 8.49741ZM7.00001 1.18555C3.78896 1.18555 1.18588 3.78862 1.18588 6.99967C1.18588 7.42069 1.23073 7.8319 1.31613 8.22856C1.35122 8.39156 1.39694 8.54551 1.45218 8.69174L1.49125 8.79518L1.56463 8.8779C2.09625 9.47718 2.62981 10.0081 3.17444 10.55L3.33623 10.7111L3.47926 10.8538L3.47927 10.8538C4.05624 11.4299 4.58664 11.9595 5.32752 12.5049L5.39633 12.5556L5.47655 12.585C5.65646 12.6511 5.84537 12.7026 6.04371 12.7354C6.3552 12.787 6.6747 12.8138 7.00001 12.8138C10.2111 12.8138 12.8141 10.2107 12.8141 6.99967C12.8141 3.78862 10.2111 1.18555 7.00001 1.18555Z" fill="#FAFAFA"/>
</svg>
