<svg width="15" height="14" viewBox="0 0 15 14" fill="none" xmlns="http://www.w3.org/2000/svg">
<g clip-path="url(#clip0_40174_534833)">
<path fill-rule="evenodd" clip-rule="evenodd" d="M2.43457 3.40923C2.43457 2.59426 3.09524 1.93359 3.91021 1.93359H11.0897C11.9047 1.93359 12.5653 2.59426 12.5653 3.40923V10.5887C12.5653 11.4037 11.9047 12.0644 11.0897 12.0644H3.91021C3.09524 12.0644 2.43457 11.4037 2.43457 10.5887V3.40923ZM3.91021 2.83359C3.59229 2.83359 3.33457 3.09132 3.33457 3.40923V10.5887C3.33457 10.9066 3.59229 11.1644 3.91021 11.1644H11.0897C11.4076 11.1644 11.6653 10.9066 11.6653 10.5887V3.40923C11.6653 3.09132 11.4076 2.83359 11.0897 2.83359H10.8549L10.0619 4.41957L9.86066 4.82207L9.05567 4.41957L9.25692 4.01708L9.84866 2.83359H8.5472L7.75421 4.41957L7.55296 4.82206L6.74798 4.41957L6.94923 4.01708L7.54097 2.83359H6.23947L5.44652 4.4195L5.24527 4.82199L4.44029 4.4195L4.64153 4.01701L5.23324 2.83359H3.91021ZM8.16378 7.76822L6.92432 8.51189V7.02454L8.16378 7.76822ZM9.26995 7.38234L6.70584 5.84388L6.02432 6.22975V9.30668L6.70584 9.69255L9.26995 8.15409V7.38234Z" fill="#FAFAFA"/>
</g>
<defs>
<clipPath id="clip0_40174_534833">
<rect width="14" height="14" fill="white" transform="translate(0.5)"/>
</clipPath>
</defs>
</svg>
