<svg width="10" height="11" viewBox="0 0 10 11" fill="none" xmlns="http://www.w3.org/2000/svg">
<path d="M6.97626 3.94006V1.58948C6.97626 1.02304 6.51706 0.563843 5.95062 0.563843H3.47877C2.91232 0.563843 2.45312 1.02304 2.45312 1.58948V3.94006" stroke="#FAFAFA"/>
<path fill-rule="evenodd" clip-rule="evenodd" d="M1.83228 3.94006C1.26584 3.94006 0.806641 4.39926 0.806641 4.9657V8.55898C0.806641 9.12543 1.26584 9.58462 1.83228 9.58462H7.59716C8.16361 9.58462 8.6228 9.12543 8.6228 8.55898V4.9657C8.6228 4.39926 8.16361 3.94006 7.59716 3.94006H1.83228ZM4.71475 8.36235C5.5984 8.36235 6.31475 7.64601 6.31475 6.76235C6.31475 5.8787 5.5984 5.16235 4.71475 5.16235C3.83109 5.16235 3.11475 5.8787 3.11475 6.76235C3.11475 7.64601 3.83109 8.36235 4.71475 8.36235Z" fill="#FAFAFA"/>
<path d="M1.25664 4.9657C1.25664 4.64779 1.51436 4.39006 1.83228 4.39006V3.49006C1.01731 3.49006 0.356641 4.15073 0.356641 4.9657H1.25664ZM1.25664 8.55898V4.9657H0.356641V8.55898H1.25664ZM1.83228 9.13462C1.51436 9.13462 1.25664 8.8769 1.25664 8.55898H0.356641C0.356641 9.37396 1.01731 10.0346 1.83228 10.0346V9.13462ZM7.59716 9.13462H1.83228V10.0346H7.59716V9.13462ZM8.1728 8.55898C8.1728 8.8769 7.91508 9.13462 7.59716 9.13462V10.0346C8.41214 10.0346 9.0728 9.37396 9.0728 8.55898H8.1728ZM8.1728 4.9657V8.55898H9.0728V4.9657H8.1728ZM7.59716 4.39006C7.91508 4.39006 8.1728 4.64779 8.1728 4.9657H9.0728C9.0728 4.15073 8.41214 3.49006 7.59716 3.49006V4.39006ZM1.83228 4.39006H7.59716V3.49006H1.83228V4.39006ZM5.86475 6.76235C5.86475 7.39748 5.34987 7.91235 4.71475 7.91235V8.81235C5.84693 8.81235 6.76475 7.89454 6.76475 6.76235H5.86475ZM4.71475 5.61235C5.34987 5.61235 5.86475 6.12723 5.86475 6.76235H6.76475C6.76475 5.63017 5.84693 4.71235 4.71475 4.71235V5.61235ZM3.56475 6.76235C3.56475 6.12723 4.07962 5.61235 4.71475 5.61235V4.71235C3.58256 4.71235 2.66475 5.63017 2.66475 6.76235H3.56475ZM4.71475 7.91235C4.07962 7.91235 3.56475 7.39748 3.56475 6.76235H2.66475C2.66475 7.89454 3.58256 8.81235 4.71475 8.81235V7.91235Z" fill="#FAFAFA"/>
</svg>
