<svg width="12" height="12" viewBox="0 0 12 12" fill="none" xmlns="http://www.w3.org/2000/svg">
<path fill-rule="evenodd" clip-rule="evenodd" d="M0.93457 2.41027C0.93457 1.5953 1.59524 0.934631 2.41021 0.934631H9.5897C10.4047 0.934631 11.0653 1.5953 11.0653 2.41027V9.58976C11.0653 10.4047 10.4047 11.0654 9.5897 11.0654H2.41021C1.59524 11.0654 0.93457 10.4047 0.93457 9.58976V2.41027ZM2.41021 1.83463C2.09229 1.83463 1.83457 2.09235 1.83457 2.41027V9.58976C1.83457 9.90768 2.09229 10.1654 2.41021 10.1654H9.5897C9.90762 10.1654 10.1653 9.90768 10.1653 9.58976V2.41027C10.1653 2.09235 9.90762 1.83463 9.5897 1.83463H9.35489L8.5619 3.42061L8.36066 3.8231L7.55567 3.42061L7.75692 3.01812L8.34866 1.83463H7.0472L6.25421 3.42061L6.05296 3.8231L5.24798 3.42061L5.44923 3.01811L6.04097 1.83463H4.73947L3.94652 3.42054L3.74527 3.82303L2.94029 3.42054L3.14153 3.01805L3.73324 1.83463H2.41021ZM6.66378 6.76925L5.42432 7.51293V6.02558L6.66378 6.76925ZM7.76995 6.38338L5.20584 4.84492L4.52432 5.23079V8.30772L5.20584 8.69359L7.76995 7.15513V6.38338Z" fill="#FAFAFA"/>
</svg>
