<svg width="14" height="14" viewBox="0 0 14 14" fill="none" xmlns="http://www.w3.org/2000/svg">
<g filter="url(#filter0_b)">
<path d="M0 2C0 0.89543 0.895431 0 2 0H12C13.1046 0 14 0.895431 14 2V12C14 13.1046 13.1046 14 12 14H2C0.89543 14 0 13.1046 0 12V2Z" fill="white" fill-opacity="0.2"/>
<path d="M2.61792 3.14648H11.4929V9.89648H8.70315L6.03837 11.514V9.89648H2.61792V3.14648Z" stroke="#FAFAFA" stroke-width="1.1" stroke-linejoin="bevel"/>
<path d="M6.31949 7.53624H5.05527L4.8345 8.25114H3.84888L5.2524 4.42432H6.11974L7.53378 8.25114H6.5429L6.31949 7.53624ZM5.27605 6.82397H6.09872L5.68607 5.49667L5.27605 6.82397Z" fill="white"/>
<path d="M9.37622 8.25114C9.34469 8.19332 9.31665 8.10834 9.29212 7.9962C9.12916 8.20121 8.90138 8.30371 8.60876 8.30371C8.34067 8.30371 8.11288 8.22311 7.92539 8.06191C7.73791 7.89895 7.64416 7.69482 7.64416 7.44951C7.64416 7.14112 7.75806 6.90808 7.98585 6.75038C8.21363 6.59268 8.5448 6.51383 8.97935 6.51383H9.25269V6.36401C9.25269 6.10293 9.13968 5.97239 8.91364 5.97239C8.70338 5.97239 8.59824 6.07577 8.59824 6.28254H7.7125C7.7125 6.00744 7.82902 5.78403 8.06207 5.61232C8.29686 5.4406 8.59561 5.35474 8.95832 5.35474C9.32103 5.35474 9.60752 5.44323 9.81778 5.6202C10.028 5.79717 10.1358 6.03985 10.1411 6.34824V7.60721C10.1446 7.86829 10.1849 8.06804 10.262 8.20646V8.25114H9.37622ZM8.82165 7.67291C8.93204 7.67291 9.02315 7.64926 9.095 7.60195C9.16859 7.55464 9.22115 7.5012 9.25269 7.44162V6.98692H8.99512C8.68673 6.98692 8.53254 7.12535 8.53254 7.4022C8.53254 7.4828 8.55969 7.54851 8.61401 7.59932C8.66833 7.64838 8.73754 7.67291 8.82165 7.67291Z" fill="white"/>
</g>
<defs>
<filter id="filter0_b" x="-20" y="-20" width="54" height="54" filterUnits="userSpaceOnUse" color-interpolation-filters="sRGB">
<feFlood flood-opacity="0" result="BackgroundImageFix"/>
<feGaussianBlur in="BackgroundImage" stdDeviation="10"/>
<feComposite in2="SourceAlpha" operator="in" result="effect1_backgroundBlur"/>
<feBlend mode="normal" in="SourceGraphic" in2="effect1_backgroundBlur" result="shape"/>
</filter>
</defs>
</svg>
