<svg width="10" height="10" viewBox="0 0 10 10" fill="none" xmlns="http://www.w3.org/2000/svg">
<path d="M7.68045 1.15318L7.80266 1.3298L7.68045 1.66044L7.43604 2.32003L7.16567 3.04827V3.90792C7.35223 4.0346 7.52865 4.17779 7.69134 4.33733C8.40544 5.0379 8.80706 5.98838 8.80713 6.97907H5.515V9.69029H4.48626V6.97907H1.18994C1.19 6.05035 1.54274 5.15734 2.17515 4.4721L2.30573 4.33733C2.46846 4.17774 2.64479 4.03463 2.8314 3.90792V3.15458L2.54011 2.32003L2.30992 1.66044L2.19441 1.3298L2.30992 1.17997L2.44468 1H7.55992L7.68045 1.15318ZM3.73124 2.61133H3.73207V4.5692C3.47281 4.69822 3.23397 4.86706 3.0256 5.07143C2.76584 5.32625 2.56401 5.62586 2.42711 5.95034H7.56996C7.43308 5.62592 7.23117 5.32622 6.97147 5.07143C6.7536 4.85776 6.50206 4.68356 6.229 4.55246V2.61133H6.23151L6.44747 2.02874H3.52783L3.73124 2.61133Z" fill="#E0E0E0"/>
</svg>
