<svg width="12" height="12" viewBox="0 0 12 12" fill="none" xmlns="http://www.w3.org/2000/svg">
<path fill-rule="evenodd" clip-rule="evenodd" d="M6.54999 1.66721C8.52209 1.91502 10.085 3.4779 10.3328 5.45H11.4588V6.55H10.3328C10.0849 8.52209 8.52208 10.0849 6.54999 10.3328V11.4588H5.44999V10.3328C3.4779 10.0849 1.91503 8.52208 1.66721 6.55H0.541138V5.45L1.66721 5.45C1.91502 3.4779 3.47789 1.91502 5.44999 1.66721V0.541138H6.54999V1.66721ZM9.26707 5.99999C9.26707 7.80435 7.80435 9.26707 5.99999 9.26707C4.19563 9.26707 2.73291 7.80435 2.73291 5.99999C2.73291 4.19563 4.19563 2.7329 5.99999 2.7329C7.80435 2.7329 9.26707 4.19563 9.26707 5.99999ZM6.53764 5.99999C6.53764 6.29693 6.29693 6.53765 5.99999 6.53765C5.70305 6.53765 5.46233 6.29693 5.46233 5.99999C5.46233 5.70305 5.70305 5.46234 5.99999 5.46234C6.29693 5.46234 6.53764 5.70305 6.53764 5.99999ZM7.63764 5.99999C7.63764 6.90444 6.90444 7.63765 5.99999 7.63765C5.09553 7.63765 4.36233 6.90444 4.36233 5.99999C4.36233 5.09554 5.09553 4.36234 5.99999 4.36234C6.90444 4.36234 7.63764 5.09554 7.63764 5.99999Z" fill="white"/>
</svg>
