<svg width="14" height="14" viewBox="0 0 14 14" fill="none" xmlns="http://www.w3.org/2000/svg">
<g clip-path="url(#clip0_22252_232745)">
<path opacity="0.4" d="M1.73193 10.2734C1.73205 10.332 1.76117 10.3819 1.8042 10.415C1.87108 10.9852 2.34343 11.4297 2.92529 11.4551H1.91357C1.30196 11.455 0.798599 10.9901 0.737793 10.3945L0.731934 10.2734V9.19922H1.73193V10.2734ZM1.73193 7.80176H0.731934V5.65332H1.73193V7.80176ZM13.564 7.80176H13.2231C13.0229 7.62805 12.8023 7.47781 12.564 7.3584V5.65332H13.564V7.80176ZM2.03174 2C1.88414 2.1972 1.79547 2.44177 1.79541 2.70703V3.04492C1.7569 3.07822 1.73201 3.12675 1.73193 3.18164V4.25586H0.731934V3.18164C0.73207 2.5291 1.26103 2.00014 1.91357 2H2.03174ZM12.5024 2.00586C13.0984 2.06629 13.5638 2.56975 13.564 3.18164V4.25586H12.564V3.18164C12.5638 3.08148 12.4824 3.0003 12.3823 3H11.6938V2.70703C11.6938 2.4419 11.606 2.19719 11.4585 2H12.3823L12.5024 2.00586ZM2.97119 3H2.80811V2.70703C2.80824 2.61605 2.88099 2.54246 2.97119 2.53906V3ZM6.46045 2.53809V3H4.34619V2.53809H6.46045ZM9.94971 2.53809V3H7.83545V2.53809H9.94971Z" fill="#00C1CD"/>
<path d="M11.2114 8.02539C11.2654 7.87963 11.4719 7.87963 11.5259 8.02539L11.771 8.68945C11.9745 9.23938 12.4086 9.67346 12.9585 9.87695L13.6226 10.123C13.7683 10.177 13.7683 10.3826 13.6226 10.4365L12.9585 10.6826C12.4086 10.8861 11.9745 11.3193 11.771 11.8691L11.5259 12.5342C11.4719 12.6799 11.2654 12.6799 11.2114 12.5342L10.9653 11.8691C10.7618 11.3195 10.3285 10.8861 9.77881 10.6826L9.11377 10.4365C8.96849 10.3824 8.96854 10.1772 9.11377 10.123L9.77881 9.87695C10.3287 9.67345 10.7618 9.23936 10.9653 8.68945L11.2114 8.02539ZM9.56885 2.00781C10.1645 2.06853 10.6302 2.57192 10.6304 3.18359V7.07227C10.2539 7.13658 9.89998 7.26869 9.58057 7.45508V3.18359C9.58043 3.11125 9.52097 3.05238 9.44873 3.05176H1.91357C1.84093 3.05189 1.78187 3.11095 1.78174 3.18359V10.2754C1.78211 10.3478 1.84108 10.4071 1.91357 10.4072H7.97705C7.99126 10.7763 8.0658 11.1295 8.19092 11.457H1.91357C1.30208 11.4569 0.798763 10.9919 0.737793 10.3965L0.731934 10.2754V3.18359C0.73207 2.53105 1.26103 2.00209 1.91357 2.00195H9.44873L9.56885 2.00781ZM4.86377 5.6582C4.86381 5.43151 5.10919 5.28911 5.30615 5.40137L7.18604 6.47363C7.38424 6.58717 7.38446 6.87298 7.18604 6.98633L5.30615 8.05859C5.10932 8.17078 4.86412 8.0282 4.86377 7.80176V5.6582Z" fill="#00C1CD"/>
</g>
<defs>
<clipPath id="clip0_22252_232745">
<rect width="14" height="14" fill="white"/>
</clipPath>
</defs>
</svg>
