<svg width="14" height="14" viewBox="0 0 14 14" fill="none" xmlns="http://www.w3.org/2000/svg">
<rect width="14" height="14" fill="black" fill-opacity="0.01"/>
<path fill-rule="evenodd" clip-rule="evenodd" d="M10.9741 4.26301L9.73668 3.02558C9.69112 2.98002 9.61725 2.98002 9.57169 3.02558L8.82829 3.76898L10.2307 5.17141L10.9741 4.42801C11.0197 4.38245 11.0197 4.30858 10.9741 4.26301ZM2.83463 9.76264L8.08583 4.51144L9.48826 5.91387L4.23706 11.1651C4.2152 11.1869 4.18555 11.1992 4.15463 11.1992L2.7997 11.2L2.80046 9.84507C2.80048 9.81415 2.81277 9.7845 2.83463 9.76264ZM10.4791 2.28312C10.0235 1.8275 9.28484 1.8275 8.82923 2.28311L2.09217 9.02018C1.87354 9.23881 1.75064 9.53528 1.75046 9.84447L1.74927 11.9586C1.74918 12.1198 1.87989 12.2505 2.0411 12.2504L3.72396 12.2495V12.2498H4.49808C4.64609 12.1917 4.78208 12.1034 4.89669 11.9888L4.94297 11.9425C4.95538 11.9312 4.96757 11.9195 4.97952 11.9075L11.7166 5.17047C12.1722 4.71486 12.1722 3.97616 11.7166 3.52055L10.4791 2.28312ZM12.474 12.2498H5.87311L6.92311 11.1998H12.474V12.2498Z" fill="white" fill-opacity="0.8"/>
</svg>
