<svg width="14" height="14" viewBox="0 0 14 14" fill="none" xmlns="http://www.w3.org/2000/svg">
<rect width="14" height="14" fill="black" fill-opacity="0.01"/>
<path fill-rule="evenodd" clip-rule="evenodd" d="M6.38116 7.00056L2.5395 10.8421C2.42559 10.956 2.42559 11.1407 2.5395 11.2546L2.74575 11.4608C2.85965 11.5747 3.04432 11.5747 3.15822 11.4608L6.99989 7.61927L10.8416 11.4609C10.9555 11.5748 11.1402 11.5748 11.2541 11.4609L11.4603 11.2547C11.5742 11.1408 11.5742 10.9561 11.4603 10.8422L7.61862 7.00056L11.4603 3.15894C11.5742 3.04504 11.5742 2.86036 11.4603 2.74646L11.2541 2.54022C11.1402 2.42632 10.9555 2.42632 10.8416 2.54022L6.99989 6.38184L3.15822 2.54028C3.04432 2.42638 2.85965 2.42638 2.74575 2.54028L2.5395 2.74652C2.42559 2.86042 2.42559 3.0451 2.5395 3.159L6.38116 7.00056Z" fill="#949494"/>
</svg>
