<svg width="14" height="10" viewBox="0 0 14 10" fill="none" xmlns="http://www.w3.org/2000/svg">
<path d="M6.49512 9.9668C6.93555 9.9668 7.26318 9.63916 7.26318 9.2041V1.48584C7.26318 1.05078 6.93555 0.707031 6.48975 0.707031C6.20508 0.707031 5.99023 0.819824 5.68408 1.10449L3.61084 3.03809C3.58398 3.06494 3.54639 3.08105 3.50879 3.08105H2.09082C1.26904 3.08105 0.823242 3.54297 0.823242 4.40234V6.28223C0.823242 7.1416 1.26904 7.59814 2.09082 7.59814H3.50879C3.54639 7.59814 3.57861 7.60889 3.61084 7.63574L5.68408 9.58545C5.96875 9.854 6.19971 9.9668 6.49512 9.9668ZM11.2969 9.11279C11.5762 9.2793 11.9253 9.21484 12.1079 8.93018C12.7847 7.94189 13.1714 6.6582 13.1714 5.33154C13.1714 3.99951 12.79 2.71582 12.1079 1.73291C11.9253 1.44824 11.5762 1.38379 11.2969 1.55029C10.9854 1.73828 10.9424 2.11426 11.1572 2.45264C11.6836 3.25293 11.9844 4.26807 11.9844 5.33154C11.9844 6.39502 11.6782 7.41016 11.1572 8.21045C10.9478 8.54883 10.9854 8.9248 11.2969 9.11279ZM9.06787 7.71094C9.33643 7.87744 9.68018 7.81299 9.85742 7.56055C10.2925 6.96973 10.5449 6.16943 10.5449 5.33154C10.5449 4.49365 10.2925 3.69336 9.85742 3.09717C9.68018 2.84473 9.33643 2.78027 9.06787 2.95752C8.76709 3.14551 8.70264 3.50537 8.94434 3.89209C9.20752 4.28418 9.35254 4.79443 9.35254 5.33154C9.35254 5.86865 9.20752 6.37354 8.94434 6.771C8.70264 7.15771 8.76709 7.51758 9.06787 7.71094Z" fill="#D4D4D4"/>
</svg>
