<svg width="14" height="14" viewBox="0 0 14 14" fill="none" xmlns="http://www.w3.org/2000/svg">
<rect y="14" width="14" height="14" rx="2" transform="rotate(-90 0 14)" fill="white" fill-opacity="0.2"/>
<path d="M2.625 10.7917C2.625 11.1138 2.88617 11.375 3.20833 11.375L3.79167 11.375C4.11383 11.375 4.375 11.1138 4.375 10.7917L4.375 5.42803C4.375 5.10586 4.11383 4.84469 3.79167 4.84469H3.20833C2.88617 4.84469 2.625 5.10586 2.625 5.42803L2.625 10.7917Z" fill="#FAFAFA"/>
<path d="M6.125 10.7917C6.125 11.1138 6.38617 11.375 6.70833 11.375L7.29167 11.375C7.61383 11.375 7.875 11.1138 7.875 10.7917L7.875 3.3338C7.875 3.01163 7.61383 2.75047 7.29167 2.75047H6.70833C6.38617 2.75047 6.125 3.01163 6.125 3.3338L6.125 10.7917Z" fill="#FAFAFA"/>
<path d="M9.625 10.7917C9.625 11.1138 9.88617 11.375 10.2083 11.375L10.7917 11.375C11.1138 11.375 11.375 11.1138 11.375 10.7917V9.05417C11.375 8.732 11.1138 8.47083 10.7917 8.47083H10.2083C9.88617 8.47083 9.625 8.732 9.625 9.05416L9.625 10.7917Z" fill="#FAFAFA"/>
</svg>
